<?xml version="1.0" encoding="UTF-8" standalone="no"?>
<svg
   xmlns:osb="http://www.openswatchbook.org/uri/2009/osb"
   xmlns:dc="http://purl.org/dc/elements/1.1/"
   xmlns:cc="http://creativecommons.org/ns#"
   xmlns:rdf="http://www.w3.org/1999/02/22-rdf-syntax-ns#"
   xmlns:svg="http://www.w3.org/2000/svg"
   xmlns="http://www.w3.org/2000/svg"
   xmlns:xlink="http://www.w3.org/1999/xlink"
   xmlns:sodipodi="http://sodipodi.sourceforge.net/DTD/sodipodi-0.dtd"
   xmlns:inkscape="http://www.inkscape.org/namespaces/inkscape"
   width="210mm"
   height="297mm"
   viewBox="0 0 210 297"
   version="1.1"
   id="svg8"
   sodipodi:docname="DSC640_NSalisbury_ProjectTask4_Infographic.svg"
   inkscape:version="1.0.1 (3bc2e813f5, 2020-09-07)"
   inkscape:export-filename="C:\cygwin64\home\salis\git\repos\DSC640\DSC640_NSalisbury_ProjectTask1\DSC640_NSalisbury_ProjectTask4_Infographic.png"
   inkscape:export-xdpi="96"
   inkscape:export-ydpi="96">
  <defs
     id="defs2">
    <rect
       x="29.132379"
       y="372.84099"
       width="4.0090429"
       height="14.165285"
       id="rect1465" />
    <rect
       x="24.054258"
       y="343.97588"
       width="11.49259"
       height="18.174328"
       id="rect1459" />
    <rect
       x="125.88395"
       y="425.76036"
       width="69.490077"
       height="30.468726"
       id="rect1392" />
    <rect
       x="62.808339"
       y="409.18965"
       width="48.108515"
       height="15.234363"
       id="rect1386" />
    <rect
       x="194.83949"
       y="344.77769"
       width="86.060787"
       height="51.850288"
       id="rect1207" />
    <rect
       x="189.22683"
       y="342.9068"
       width="78.577241"
       height="54.255714"
       id="rect1197" />
    <rect
       x="222.36825"
       y="385.66993"
       width="27.528761"
       height="39.55589"
       id="rect1191" />
    <rect
       x="191.89952"
       y="344.24315"
       width="77.240894"
       height="67.084652"
       id="rect1181" />
    <rect
       x="195.64129"
       y="348.51946"
       width="67.351921"
       height="38.754082"
       id="rect1169" />
    <rect
       x="219.42828"
       y="354.39939"
       width="100.49334"
       height="57.997487"
       id="rect1032" />
    <linearGradient
       inkscape:collect="always"
       id="linearGradient1026">
      <stop
         style="stop-color:#fbfafa;stop-opacity:1;"
         offset="0"
         id="stop1022" />
      <stop
         style="stop-color:#fbfafa;stop-opacity:0;"
         offset="1"
         id="stop1024" />
    </linearGradient>
    <linearGradient
       inkscape:collect="always"
       id="linearGradient992">
      <stop
         style="stop-color:#c53535;stop-opacity:1;"
         offset="0"
         id="stop988" />
      <stop
         style="stop-color:#ffffff;stop-opacity:0"
         offset="1"
         id="stop990" />
    </linearGradient>
    <rect
       x="55.033333"
       y="382.5875"
       width="56.885417"
       height="37.570833"
       id="rect4535" />
    <rect
       x="96.8375"
       y="397.40417"
       width="0.79375"
       height="12.170833"
       id="rect4529" />
    <rect
       x="128.05833"
       y="394.49375"
       width="0.26458333"
       height="12.435417"
       id="rect4523" />
    <rect
       x="128.5875"
       y="413.27917"
       width="2.9104167"
       height="26.9875"
       id="rect4517" />
    <rect
       x="121.44375"
       y="398.4625"
       width="5.0270833"
       height="15.345833"
       id="rect4511" />
    <rect
       x="29.36875"
       y="346.33958"
       width="91.638333"
       height="25.874802"
       id="rect4477" />
    <linearGradient
       inkscape:collect="always"
       id="linearGradient4286-3">
      <stop
         style="stop-color:#c83737;stop-opacity:1;"
         offset="0"
         id="stop4282" />
      <stop
         style="stop-color:#c83737;stop-opacity:0;"
         offset="1"
         id="stop4284" />
    </linearGradient>
    <linearGradient
       id="linearGradient4222"
       osb:paint="solid">
      <stop
         style="stop-color:#b42639;stop-opacity:0.61176473;"
         offset="0"
         id="stop4220" />
    </linearGradient>
    <rect
       x="93.927084"
       y="251.61875"
       width="40.216667"
       height="14.816667"
       id="rect2973" />
    <rect
       x="201.6125"
       y="17.4625"
       width="75.406253"
       height="59.266667"
       id="rect2799" />
    <linearGradient
       inkscape:collect="always"
       id="linearGradient2791">
      <stop
         style="stop-color:#0000ff;stop-opacity:1;"
         offset="0"
         id="stop2787" />
      <stop
         style="stop-color:#c1f59e;stop-opacity:0.08627451"
         offset="1"
         id="stop2789" />
    </linearGradient>
    <linearGradient
       inkscape:collect="always"
       xlink:href="#linearGradient2791"
       id="linearGradient2795"
       gradientUnits="userSpaceOnUse"
       x1="151.11739"
       y1="-81.911072"
       x2="150.01874"
       y2="158.08855"
       gradientTransform="matrix(0.85607228,0,0,0.55680897,22.469182,7.4632888)" />
    <clipPath
       clipPathUnits="userSpaceOnUse"
       id="clipEmfPath1">
      <path
         d="M 158.94367,80.431254 L 254.88552,80.431254 L 254.88552,176.37311 L 158.94367,176.37311 z"
         id="path2832" />
    </clipPath>
    <clipPath
       clipPathUnits="userSpaceOnUse"
       id="clipEmfPath2">
      <path
         d="M 0,0 L 95.941853,0 L 95.941853,95.941853 L 0,95.941853 z"
         id="path2835" />
    </clipPath>
    <pattern
       id="EMFhbasepattern"
       patternUnits="userSpaceOnUse"
       width="6"
       height="6"
       x="0"
       y="0" />
    <rect
       x="201.6125"
       y="17.4625"
       width="173.99377"
       height="29.015522"
       id="rect2799-0" />
    <rect
       x="201.6125"
       y="17.4625"
       width="75.40625"
       height="59.266666"
       id="rect2945" />
    <filter
       inkscape:collect="always"
       style="color-interpolation-filters:sRGB"
       id="filter3002"
       x="-2.9314286e-05"
       width="1.0000586"
       y="-8.208e-05"
       height="1.0001642">
      <feGaussianBlur
         inkscape:collect="always"
         stdDeviation="0.0038909623"
         id="feGaussianBlur3004" />
    </filter>
    <rect
       x="201.6125"
       y="17.4625"
       width="164.61912"
       height="40.23436"
       id="rect2799-0-1" />
    <rect
       x="201.6125"
       y="17.4625"
       width="184.14999"
       height="37.835415"
       id="rect3131" />
    <linearGradient
       inkscape:collect="always"
       xlink:href="#linearGradient2791"
       id="linearGradient3220"
       x1="161.09393"
       y1="132.07936"
       x2="162.06566"
       y2="225.21271"
       gradientUnits="userSpaceOnUse"
       gradientTransform="matrix(0.85806979,0,0,0.85806979,21.398244,-16.976463)" />
    <linearGradient
       inkscape:collect="always"
       xlink:href="#linearGradient4286-3"
       id="linearGradient4288"
       x1="162.12413"
       y1="529.54169"
       x2="163.21994"
       y2="225.83086"
       gradientUnits="userSpaceOnUse" />
    <linearGradient
       id="linearGradient3842"
       x1="147.19"
       gradientUnits="userSpaceOnUse"
       x2="278.68"
       y1="182.94"
       y2="184.33">
      <stop
         id="stop3838"
         stop-color="#fdd99b"
         offset="0" />
      <stop
         id="stop3840"
         stop-color="#fdd99b"
         stop-opacity="0"
         offset="1" />
    </linearGradient>
    <filter
       id="filter3844">
      <feGaussianBlur
         id="feGaussianBlur3846"
         stdDeviation="2.9216403" />
    </filter>
    <filter
       id="filter3949"
       x="-0.00015273014"
       width="1.0003055"
       y="-0.00042181014"
       height="1.0008436">
      <feGaussianBlur
         id="feGaussianBlur3951"
         stdDeviation="0.0133602" />
    </filter>
    <rect
       x="201.6125"
       y="17.4625"
       width="189.85121"
       height="79.632496"
       id="rect4410" />
    <rect
       x="29.36875"
       y="346.33958"
       width="67.733334"
       height="32.808332"
       id="rect4507" />
    <linearGradient
       inkscape:collect="always"
       xlink:href="#linearGradient992"
       id="linearGradient994"
       x1="165.97438"
       y1="173.99248"
       x2="164.63803"
       y2="432.97665"
       gradientUnits="userSpaceOnUse"
       gradientTransform="matrix(0.85806979,0,0,0.65471221,21.398244,39.840509)" />
    <linearGradient
       inkscape:collect="always"
       xlink:href="#linearGradient2791"
       id="linearGradient1012"
       x1="1.3746125"
       y1="66.101021"
       x2="319.93292"
       y2="66.101021"
       gradientUnits="userSpaceOnUse"
       gradientTransform="matrix(0.85607228,0,0,0.65922878,21.518916,8.894581)" />
    <linearGradient
       inkscape:collect="always"
       xlink:href="#linearGradient1026"
       id="linearGradient1028"
       x1="1.2762645"
       y1="282.18711"
       x2="319.85327"
       y2="282.18711"
       gradientUnits="userSpaceOnUse" />
    <rect
       x="29.36875"
       y="346.33958"
       width="67.997917"
       height="23.018749"
       id="rect1104" />
    <rect
       x="219.42828"
       y="354.39939"
       width="100.49334"
       height="57.997487"
       id="rect1106" />
    <filter
       inkscape:collect="always"
       style="color-interpolation-filters:sRGB"
       id="filter1163"
       x="-0.096600198"
       width="1.1932004"
       y="-0.023476541"
       height="1.0469531">
      <feGaussianBlur
         inkscape:collect="always"
         stdDeviation="0.65621481"
         id="feGaussianBlur1165" />
    </filter>
    <linearGradient
       inkscape:collect="always"
       xlink:href="#linearGradient2791"
       id="linearGradient1483"
       x1="156.35316"
       y1="548.57068"
       x2="156.61946"
       y2="390.34714"
       gradientUnits="userSpaceOnUse"
       gradientTransform="matrix(0.85806979,0,0,0.85806979,21.398244,-16.976463)" />
  </defs>
  <sodipodi:namedview
     id="base"
     pagecolor="#ffffff"
     bordercolor="#666666"
     borderopacity="1.0"
     inkscape:pageopacity="0.0"
     inkscape:pageshadow="2"
     inkscape:zoom="0.98994949"
     inkscape:cx="734.0922"
     inkscape:cy="449.51311"
     inkscape:document-units="px"
     inkscape:current-layer="layer1"
     inkscape:document-rotation="0"
     showgrid="false"
     showborder="false"
     inkscape:object-nodes="false"
     inkscape:snap-nodes="false"
     inkscape:window-width="2400"
     inkscape:window-height="1272"
     inkscape:window-x="4792"
     inkscape:window-y="664"
     inkscape:window-maximized="1" />
  <metadata
     id="metadata5">
    <rdf:RDF>
      <cc:Work
         rdf:about="">
        <dc:format>image/svg+xml</dc:format>
        <dc:type
           rdf:resource="http://purl.org/dc/dcmitype/StillImage" />
        <dc:title></dc:title>
      </cc:Work>
    </rdf:RDF>
  </metadata>
  <g
     inkscape:label="Layer 1"
     inkscape:groupmode="layer"
     id="layer1">
    <rect
       style="fill:url(#linearGradient994);fill-opacity:1;stroke:none;stroke-width:0.396624;stroke-miterlimit:4;stroke-dasharray:9.519, 0.396624;stroke-dashoffset:0"
       id="rect973"
       width="272.68039"
       height="60.544682"
       x="22.774261"
       y="261.896" />
    <rect
       style="opacity:0.410256;fill:url(#linearGradient2795);fill-opacity:1;stroke:url(#linearGradient1012);stroke-width:0.365343;stroke-dasharray:8.76819, 0.365343"
       id="rect2777"
       width="272.70895"
       height="85.594299"
       x="22.695683"
       y="9.6731224" />
    <g
       id="Icons"
       transform="matrix(0.10277866,0.90954337,-1.1441167,0.12928552,145.68028,-9.3476007)">
      <path
         d="m 82.005,66 v -9 l -29,-20.5 V 17 c 0,-3.9 -2,-9 -5,-9 -2.9,0 -5,5.1 -5,9 v 19.5 l -29,20.5 v 9 l 29,-14.5 v 21.8 l -10,8.7 v 6 l 15,-6 15,6 v -6 l -10,-8.7 V 51.5 Z m -30.313,8.809 9.313,8.1 v 2.135 l -12.257,-4.9 -0.743,-0.3 -0.743,0.3 -12.257,4.9 v -2.133 l 9.313,-8.1 0.687,-0.6 V 48.264 l -2.9,1.447 -26.1,13.053 v -4.729 l 28.154,-19.9 0.846,-0.6 V 17 c 0,-3.541 1.9,-7 3,-7 1.254,0 3,3.527 3,7 v 20.535 l 0.845,0.6 28.155,19.9 v 4.729 L 53.9,49.711 51.006,48.264 v 25.947 z"
         id="path846" />
    </g>
    <text
       xml:space="preserve"
       id="text2797"
       style="font-style:normal;font-variant:normal;font-weight:normal;font-stretch:normal;font-size:9.85915px;line-height:1.25;font-family:'Times New Roman';-inkscape-font-specification:'Times New Roman, Normal';font-variant-ligatures:normal;font-variant-caps:normal;font-variant-numeric:normal;font-variant-east-asian:normal;white-space:pre;shape-inside:url(#rect2799);fill:#000000;fill-opacity:1;stroke:none;"
       transform="matrix(1.5730667,0,0,1.5730667,-137.48646,-3.5292308)"><tspan
         x="201.61328"
         y="26.214078"><tspan
           style="font-style:normal;font-variant:normal;font-weight:normal;font-stretch:normal;font-size:9.85915px;font-family:'Times New Roman';-inkscape-font-specification:'Times New Roman, Normal';font-variant-ligatures:normal;font-variant-caps:normal;font-variant-numeric:normal;font-variant-east-asian:normal">AIR TRAVEL
</tspan></tspan><tspan
         x="201.61328"
         y="38.538014"><tspan
           style="font-style:normal;font-variant:normal;font-weight:normal;font-stretch:normal;font-size:9.85915px;font-family:'Times New Roman';-inkscape-font-specification:'Times New Roman, Normal';font-variant-ligatures:normal;font-variant-caps:normal;font-variant-numeric:normal;font-variant-east-asian:normal">IS SAFE</tspan></tspan></text>
    <rect
       style="opacity:0.1067;fill:url(#linearGradient3220);fill-opacity:1;stroke:none;stroke-width:1.56342;stroke-dasharray:37.522, 1.56342;stroke-opacity:0.247788"
       id="rect2803"
       width="273.49799"
       height="80.975739"
       x="22.501381"
       y="95.372375" />
    <path
       d="m 258.50869,96.78934 7.33392,7.33393 -9.82001,9.82001 -7.45823,-7.45823 -12.43038,12.43037 -7.45823,-7.45823 -22.49901,22.499 5.22077,5.22076 17.27824,-17.27823 7.45823,7.45824 12.43038,-12.43039 7.45823,7.45823 15.04078,-15.04077 7.33391,7.33393 V 96.78934 Z"
       id="path2821"
       style="fill:#5599ff;fill-opacity:0.899705;stroke-width:1.24303" />
    <g
       clip-path="url(#clipEmfPath1)"
       id="g2841"
       transform="matrix(0.26458333,0,0,0.26458333,74.484756,201.61648)" />
    <g
       clip-path="url(#clipEmfPath2)"
       id="g2843"
       transform="matrix(0.26458333,0,0,0.26458333,74.484756,201.61648)" />
    <text
       xml:space="preserve"
       id="text2797-9"
       style="font-style:normal;font-variant:normal;font-weight:normal;font-stretch:normal;font-size:15.5091px;line-height:0;font-family:'Times New Roman';-inkscape-font-specification:'Times New Roman, Normal';font-variant-ligatures:normal;font-variant-caps:normal;font-variant-numeric:normal;font-variant-east-asian:normal;white-space:pre;shape-inside:url(#rect2799-0);fill:#000000;fill-opacity:1;stroke:none;"
       transform="matrix(0.85806979,0,0,0.85806979,-141.45858,129.29636)"><tspan
         x="201.61328"
         y="26.195675"><tspan
           style="font-size:12.7px;line-height:0.85">2002: 600+ Million Passengers
</tspan></tspan><tspan
         x="201.61328"
         y="38.922271"><tspan
           style="font-size:12.7px;line-height:0.85">2019: </tspan><tspan
           style="font-style:normal;font-variant:normal;font-weight:bold;font-stretch:normal;font-size:14.1111px;font-family:'Times New Roman';-inkscape-font-specification:'Times New Roman,  Bold'">900+</tspan><tspan
           style="font-size:12.7px;line-height:0.85"> Million Passengers</tspan><tspan
           style="line-height:0.85"> </tspan></tspan></text>
    <text
       xml:space="preserve"
       id="text2971"
       style="fill:black;fill-opacity:1;line-height:1.25;stroke:none;font-family:sans-serif;font-style:normal;font-weight:normal;font-size:10.58333336px;white-space:pre;shape-inside:url(#rect2973);" />
    <rect
       style="opacity:0.486352;fill:url(#linearGradient4288);fill-opacity:1;stroke:url(#linearGradient1028);stroke-width:0.529167;stroke-dasharray:12.7, 0.529167;stroke-opacity:0.431452;filter:url(#filter3002)"
       id="rect3006"
       width="318.55832"
       height="113.77083"
       x="1.2856028"
       y="225.3017"
       transform="matrix(0.85807288,0,0,0.75728978,21.397755,5.7289592)" />
    <g
       id="g3120"
       transform="matrix(0.85806979,0,0,0.85806979,23.895578,-53.98251)">
      <g
         id="Icons-3"
         transform="matrix(0.80156164,0,0,0.80156164,6.8527466,161.87279)">
        <path
           d="m 20,40.066 c 0,-0.5523 -0.4477,-1 -1,-1 v 0 c -0.5523,0 -1,0.4477 -1,1 v 7.413 l 3.185,11.6 H 8.816 L 12,47.616 v -7.55 c 0,-0.5523 -0.4477,-1 -1,-1 v 0 c -0.5523,0 -1,0.4477 -1,1 v 7.276 L 6.185,61.083 H 10 v 15 h 10 v -15 h 3.816 L 20,47.343 Z m -8,21.017 h 2 v 13 h -2 z m 6,13 h -2 v -13 h 2 z"
           id="path2900" />
        <path
           d="m 41,39.067 c -0.5523,0 -1,0.4477 -1,1 V 74.088 H 38 V 54.067 H 36 V 74.088 H 34 V 40.067 c 0,-0.5523 -0.4477,-1 -1,-1 -0.5523,0 -1,0.4477 -1,1 V 76.088 H 42 V 40.067 c 0,-0.5523 -0.4477,-1 -1,-1 z"
           id="path2902" />
        <path
           d="m 37,30.067 c 2.7614,0 5,-2.2386 5,-5 0,-2.7614 -2.2386,-5 -5,-5 -2.7614,0 -5,2.2386 -5,5 0.0033,2.7601 2.2399,4.9967 5,5 z m 0,-8 c 1.6569,0 3,1.3431 3,3 0,1.6569 -1.3431,3 -3,3 -1.6569,0 -3,-1.3431 -3,-3 0,-1.6569 1.3431,-3 3,-3 z"
           id="path2904" />
        <path
           d="m 15,30.067 c 2.7614,0 5,-2.2386 5,-5 0,-2.7614 -2.2386,-5 -5,-5 -2.7614,0 -5,2.2386 -5,5 0.0033,2.7601 2.2399,4.9967 5,5 z m 0,-8 c 1.6569,0 3,1.3431 3,3 0,1.6569 -1.3431,3 -3,3 -1.6569,0 -3,-1.3431 -3,-3 0,-1.6569 1.3431,-3 3,-3 z"
           id="path2906" />
        <path
           d="m 64,40.066 c 0,-0.5523 -0.4477,-1 -1,-1 v 0 c -0.5523,0 -1,0.4477 -1,1 v 7.413 l 3.185,11.6 H 52.816 L 56,47.616 v -7.55 c 0,-0.5523 -0.4477,-1 -1,-1 v 0 c -0.5523,0 -1,0.4477 -1,1 v 7.276 l -3.816,13.74 H 54 v 15 h 10 v -15 h 3.816 L 64,47.343 Z m -8,21.017 h 2 v 13 h -2 z m 6,13 h -2 v -13 h 2 z"
           id="path2908" />
        <path
           d="m 85,39.067 c -0.5523,0 -1,0.4477 -1,1 V 74.088 H 82 V 54.067 H 80 V 74.088 H 78 V 40.067 c 0,-0.5523 -0.4477,-1 -1,-1 -0.5523,0 -1,0.4477 -1,1 V 76.088 H 86 V 40.067 c 0,-0.5523 -0.4477,-1 -1,-1 z"
           id="path2910" />
        <path
           d="m 81,30.067 c 2.7614,0 5,-2.2386 5,-5 0,-2.7614 -2.2386,-5 -5,-5 -2.7614,0 -5,2.2386 -5,5 0.0033,2.7601 2.2399,4.9967 5,5 z m 0,-8 c 1.6569,0 3,1.3431 3,3 0,1.6569 -1.3431,3 -3,3 -1.6569,0 -3,-1.3431 -3,-3 0,-1.6569 1.3431,-3 3,-3 z"
           id="path2912" />
        <path
           d="m 59,30.067 c 2.7614,0 5,-2.2386 5,-5 0,-2.7614 -2.2386,-5 -5,-5 -2.7614,0 -5,2.2386 -5,5 0.0033,2.7601 2.2399,4.9967 5,5 z m 0,-8 c 1.6569,0 3,1.3431 3,3 0,1.6569 -1.3431,3 -3,3 -1.6569,0 -3,-1.3431 -3,-3 0,-1.6569 1.3431,-3 3,-3 z"
           id="path2914" />
        <path
           d="M 92.535,50.635 90,36.255 C 89.8407,35.62 89.4762,35.0555 88.963,34.649 87.6869,33.6923 86.24,32.9877 84.7,32.573 c -1.1989,-0.3188 -2.4325,-0.4887 -3.673,-0.506 -1.2146,0.0102 -2.4225,0.1817 -3.592,0.51 -1.5354,0.4149 -2.9778,1.1184 -4.25,2.073 -0.5371,0.4113 -0.9092,1.0012 -1.049,1.663 l -2.128,11.292 c 0,0.0055 -0.0045,0.01 -0.01,0.01 -0.0055,0 -0.01,-0.0045 -0.01,-0.01 l -2.135,-11.35 c -0.1459,-0.6407 -0.5131,-1.2094 -1.037,-1.606 -1.2706,-0.9531 -2.7108,-1.6559 -4.244,-2.071 -1.1721,-0.329 -2.3827,-0.5009 -3.6,-0.511 -1.2456,0.0177 -2.4843,0.189 -3.688,0.51 -1.5163,0.4085 -2.9415,1.1008 -4.2,2.04 -0.5529,0.4261 -0.9415,1.0302 -1.1,1.71 L 47.948,48.11 c 0,0.0055 -0.0045,0.01 -0.01,0.01 -0.0055,0 -0.01,-0.0045 -0.01,-0.01 L 46,36.255 C 45.8407,35.62 45.4762,35.0555 44.963,34.649 43.6869,33.6923 42.24,32.9877 40.7,32.573 c -1.1989,-0.3188 -2.4325,-0.4887 -3.673,-0.506 -1.2146,0.0102 -2.4225,0.1817 -3.592,0.51 -1.5354,0.4149 -2.9778,1.1184 -4.25,2.073 -0.5371,0.4113 -0.9092,1.0012 -1.049,1.663 l -2.128,11.292 c 0,0.0055 -0.0045,0.01 -0.01,0.01 -0.0055,0 -0.01,-0.0045 -0.01,-0.01 l -2.135,-11.35 c -0.1459,-0.6407 -0.5131,-1.2094 -1.037,-1.606 -1.2706,-0.9531 -2.7108,-1.6559 -4.244,-2.071 -1.1721,-0.329 -2.3827,-0.5009 -3.6,-0.511 -1.2456,0.0177 -2.4843,0.189 -3.688,0.51 -1.51631,0.4085 -2.94146,1.1008 -4.2,2.04 -0.55216,0.4255 -0.94068,1.0284 -1.1,1.707 L 3.461,50.643 c -0.26025,1.4689 0.45359,2.9385 1.769,3.642 0.48198,0.2697 1.0913,0.0975 1.36096,-0.3844 0.26965,-0.482 0.09753,-1.0913 -0.38445,-1.361 C 6.18157,52.5256 6.15604,52.5128 6.13,52.501 5.5985,52.194 5.31807,51.5855 5.43,50.982 L 7.941,36.74 c 0.05466,-0.1874 0.15821,-0.3568 0.3,-0.491 1.06274,-0.7976 2.267,-1.3867 3.549,-1.736 1.0405,-0.2782 2.1111,-0.428 3.188,-0.446 1.0404,0.0104 2.0748,0.1591 3.076,0.442 1.2876,0.3488 2.4971,0.9393 3.564,1.74 0.1423,0.1069 0.2431,0.26 0.285,0.433 l 3.115,16.569 c 0.1014,0.5429 0.6237,0.9008 1.1666,0.7994 0.406,-0.0758 0.7236,-0.3934 0.7994,-0.7994 l 3.1,-16.512 c 0.037,-0.1947 0.1436,-0.3693 0.3,-0.491 1.0688,-0.8015 2.2803,-1.3923 3.57,-1.741 0.9996,-0.2825 2.0323,-0.4308 3.071,-0.441 1.0717,0.0176 2.1373,0.166 3.173,0.442 1.3011,0.3541 2.5229,0.9527 3.6,1.764 0.105,0.1121 0.1884,0.2426 0.246,0.385 l 2.881,17.711 c 0.0786,0.4819 0.4937,0.8366 0.982,0.839 h 0.005 c 0.4862,-1e-4 0.9019,-0.35 0.985,-0.829 L 51.941,36.74 c 0.0547,-0.1874 0.1582,-0.3568 0.3,-0.491 1.0627,-0.7976 2.267,-1.3867 3.549,-1.736 1.0405,-0.2782 2.1111,-0.428 3.188,-0.446 1.0404,0.0104 2.0748,0.1591 3.076,0.442 1.2876,0.3488 2.4971,0.9393 3.564,1.74 0.1423,0.1069 0.2431,0.26 0.285,0.433 l 3.115,16.569 c 0.1014,0.5429 0.6237,0.9008 1.1666,0.7994 0.406,-0.0758 0.7236,-0.3934 0.7994,-0.7994 l 3.1,-16.512 c 0.037,-0.1947 0.1436,-0.3693 0.3,-0.491 1.0688,-0.8015 2.2804,-1.3923 3.57,-1.741 0.9996,-0.2825 2.0323,-0.4308 3.071,-0.441 1.0717,0.0176 2.1373,0.166 3.173,0.442 1.3011,0.3541 2.5229,0.9527 3.6,1.764 0.1083,0.1157 0.1925,0.2516 0.248,0.4 l 2.523,14.3 c 0.1374,0.6921 -0.2565,1.3795 -0.923,1.611 -0.187,0.0512 -0.383,0.0605 -0.574,0.027 -0.544,-0.0964 -1.0631,0.2665 -1.1595,0.8105 -0.0964,0.544 0.2665,1.0631 0.8105,1.1595 0.479,0.0845 0.9706,0.0623 1.44,-0.065 1.6639,-0.5 2.6855,-2.1712 2.372,-3.88 z"
           id="path2916" />
      </g>
      <g
         id="g3046"
         transform="matrix(0.80156164,0,0,0.80156164,76.11168,161.87279)">
        <path
           d="m 20,40.066 c 0,-0.5523 -0.4477,-1 -1,-1 v 0 c -0.5523,0 -1,0.4477 -1,1 v 7.413 l 3.185,11.6 H 8.816 L 12,47.616 v -7.55 c 0,-0.5523 -0.4477,-1 -1,-1 v 0 c -0.5523,0 -1,0.4477 -1,1 v 7.276 L 6.185,61.083 H 10 v 15 h 10 v -15 h 3.816 L 20,47.343 Z m -8,21.017 h 2 v 13 h -2 z m 6,13 h -2 v -13 h 2 z"
           id="path3028" />
        <path
           d="m 41,39.067 c -0.5523,0 -1,0.4477 -1,1 V 74.088 H 38 V 54.067 H 36 V 74.088 H 34 V 40.067 c 0,-0.5523 -0.4477,-1 -1,-1 -0.5523,0 -1,0.4477 -1,1 V 76.088 H 42 V 40.067 c 0,-0.5523 -0.4477,-1 -1,-1 z"
           id="path3030" />
        <path
           d="m 37,30.067 c 2.7614,0 5,-2.2386 5,-5 0,-2.7614 -2.2386,-5 -5,-5 -2.7614,0 -5,2.2386 -5,5 0.0033,2.7601 2.2399,4.9967 5,5 z m 0,-8 c 1.6569,0 3,1.3431 3,3 0,1.6569 -1.3431,3 -3,3 -1.6569,0 -3,-1.3431 -3,-3 0,-1.6569 1.3431,-3 3,-3 z"
           id="path3032" />
        <path
           d="m 15,30.067 c 2.7614,0 5,-2.2386 5,-5 0,-2.7614 -2.2386,-5 -5,-5 -2.7614,0 -5,2.2386 -5,5 0.0033,2.7601 2.2399,4.9967 5,5 z m 0,-8 c 1.6569,0 3,1.3431 3,3 0,1.6569 -1.3431,3 -3,3 -1.6569,0 -3,-1.3431 -3,-3 0,-1.6569 1.3431,-3 3,-3 z"
           id="path3034" />
        <path
           d="m 64,40.066 c 0,-0.5523 -0.4477,-1 -1,-1 v 0 c -0.5523,0 -1,0.4477 -1,1 v 7.413 l 3.185,11.6 H 52.816 L 56,47.616 v -7.55 c 0,-0.5523 -0.4477,-1 -1,-1 v 0 c -0.5523,0 -1,0.4477 -1,1 v 7.276 l -3.816,13.74 H 54 v 15 h 10 v -15 h 3.816 L 64,47.343 Z m -8,21.017 h 2 v 13 h -2 z m 6,13 h -2 v -13 h 2 z"
           id="path3036" />
        <path
           d="m 85,39.067 c -0.5523,0 -1,0.4477 -1,1 V 74.088 H 82 V 54.067 H 80 V 74.088 H 78 V 40.067 c 0,-0.5523 -0.4477,-1 -1,-1 -0.5523,0 -1,0.4477 -1,1 V 76.088 H 86 V 40.067 c 0,-0.5523 -0.4477,-1 -1,-1 z"
           id="path3038" />
        <path
           d="m 81,30.067 c 2.7614,0 5,-2.2386 5,-5 0,-2.7614 -2.2386,-5 -5,-5 -2.7614,0 -5,2.2386 -5,5 0.0033,2.7601 2.2399,4.9967 5,5 z m 0,-8 c 1.6569,0 3,1.3431 3,3 0,1.6569 -1.3431,3 -3,3 -1.6569,0 -3,-1.3431 -3,-3 0,-1.6569 1.3431,-3 3,-3 z"
           id="path3040" />
        <path
           d="m 59,30.067 c 2.7614,0 5,-2.2386 5,-5 0,-2.7614 -2.2386,-5 -5,-5 -2.7614,0 -5,2.2386 -5,5 0.0033,2.7601 2.2399,4.9967 5,5 z m 0,-8 c 1.6569,0 3,1.3431 3,3 0,1.6569 -1.3431,3 -3,3 -1.6569,0 -3,-1.3431 -3,-3 0,-1.6569 1.3431,-3 3,-3 z"
           id="path3042" />
        <path
           d="M 92.535,50.635 90,36.255 C 89.8407,35.62 89.4762,35.0555 88.963,34.649 87.6869,33.6923 86.24,32.9877 84.7,32.573 c -1.1989,-0.3188 -2.4325,-0.4887 -3.673,-0.506 -1.2146,0.0102 -2.4225,0.1817 -3.592,0.51 -1.5354,0.4149 -2.9778,1.1184 -4.25,2.073 -0.5371,0.4113 -0.9092,1.0012 -1.049,1.663 l -2.128,11.292 c 0,0.0055 -0.0045,0.01 -0.01,0.01 -0.0055,0 -0.01,-0.0045 -0.01,-0.01 l -2.135,-11.35 c -0.1459,-0.6407 -0.5131,-1.2094 -1.037,-1.606 -1.2706,-0.9531 -2.7108,-1.6559 -4.244,-2.071 -1.1721,-0.329 -2.3827,-0.5009 -3.6,-0.511 -1.2456,0.0177 -2.4843,0.189 -3.688,0.51 -1.5163,0.4085 -2.9415,1.1008 -4.2,2.04 -0.5529,0.4261 -0.9415,1.0302 -1.1,1.71 L 47.948,48.11 c 0,0.0055 -0.0045,0.01 -0.01,0.01 -0.0055,0 -0.01,-0.0045 -0.01,-0.01 L 46,36.255 C 45.8407,35.62 45.4762,35.0555 44.963,34.649 43.6869,33.6923 42.24,32.9877 40.7,32.573 c -1.1989,-0.3188 -2.4325,-0.4887 -3.673,-0.506 -1.2146,0.0102 -2.4225,0.1817 -3.592,0.51 -1.5354,0.4149 -2.9778,1.1184 -4.25,2.073 -0.5371,0.4113 -0.9092,1.0012 -1.049,1.663 l -2.128,11.292 c 0,0.0055 -0.0045,0.01 -0.01,0.01 -0.0055,0 -0.01,-0.0045 -0.01,-0.01 l -2.135,-11.35 c -0.1459,-0.6407 -0.5131,-1.2094 -1.037,-1.606 -1.2706,-0.9531 -2.7108,-1.6559 -4.244,-2.071 -1.1721,-0.329 -2.3827,-0.5009 -3.6,-0.511 -1.2456,0.0177 -2.4843,0.189 -3.688,0.51 -1.51631,0.4085 -2.94146,1.1008 -4.2,2.04 -0.55216,0.4255 -0.94068,1.0284 -1.1,1.707 L 3.461,50.643 c -0.26025,1.4689 0.45359,2.9385 1.769,3.642 0.48198,0.2697 1.0913,0.0975 1.36096,-0.3844 0.26965,-0.482 0.09753,-1.0913 -0.38445,-1.361 C 6.18157,52.5256 6.15604,52.5128 6.13,52.501 5.5985,52.194 5.31807,51.5855 5.43,50.982 L 7.941,36.74 c 0.05466,-0.1874 0.15821,-0.3568 0.3,-0.491 1.06274,-0.7976 2.267,-1.3867 3.549,-1.736 1.0405,-0.2782 2.1111,-0.428 3.188,-0.446 1.0404,0.0104 2.0748,0.1591 3.076,0.442 1.2876,0.3488 2.4971,0.9393 3.564,1.74 0.1423,0.1069 0.2431,0.26 0.285,0.433 l 3.115,16.569 c 0.1014,0.5429 0.6237,0.9008 1.1666,0.7994 0.406,-0.0758 0.7236,-0.3934 0.7994,-0.7994 l 3.1,-16.512 c 0.037,-0.1947 0.1436,-0.3693 0.3,-0.491 1.0688,-0.8015 2.2803,-1.3923 3.57,-1.741 0.9996,-0.2825 2.0323,-0.4308 3.071,-0.441 1.0717,0.0176 2.1373,0.166 3.173,0.442 1.3011,0.3541 2.5229,0.9527 3.6,1.764 0.105,0.1121 0.1884,0.2426 0.246,0.385 l 2.881,17.711 c 0.0786,0.4819 0.4937,0.8366 0.982,0.839 h 0.005 c 0.4862,-1e-4 0.9019,-0.35 0.985,-0.829 L 51.941,36.74 c 0.0547,-0.1874 0.1582,-0.3568 0.3,-0.491 1.0627,-0.7976 2.267,-1.3867 3.549,-1.736 1.0405,-0.2782 2.1111,-0.428 3.188,-0.446 1.0404,0.0104 2.0748,0.1591 3.076,0.442 1.2876,0.3488 2.4971,0.9393 3.564,1.74 0.1423,0.1069 0.2431,0.26 0.285,0.433 l 3.115,16.569 c 0.1014,0.5429 0.6237,0.9008 1.1666,0.7994 0.406,-0.0758 0.7236,-0.3934 0.7994,-0.7994 l 3.1,-16.512 c 0.037,-0.1947 0.1436,-0.3693 0.3,-0.491 1.0688,-0.8015 2.2804,-1.3923 3.57,-1.741 0.9996,-0.2825 2.0323,-0.4308 3.071,-0.441 1.0717,0.0176 2.1373,0.166 3.173,0.442 1.3011,0.3541 2.5229,0.9527 3.6,1.764 0.1083,0.1157 0.1925,0.2516 0.248,0.4 l 2.523,14.3 c 0.1374,0.6921 -0.2565,1.3795 -0.923,1.611 -0.187,0.0512 -0.383,0.0605 -0.574,0.027 -0.544,-0.0964 -1.0631,0.2665 -1.1595,0.8105 -0.0964,0.544 0.2665,1.0631 0.8105,1.1595 0.479,0.0845 0.9706,0.0623 1.44,-0.065 1.6639,-0.5 2.6855,-2.1712 2.372,-3.88 z"
           id="path3044" />
      </g>
    </g>
    <path
       d="m 84.451605,220.99611 7.33392,-7.33394 -9.82,-9.82001 -7.45824,7.45823 -12.430373,-12.43037 -7.458231,7.45823 -22.49901,-22.499 5.220771,-5.22076 17.278239,17.27824 7.458231,-7.45825 12.430373,12.43039 7.45824,-7.45823 15.04078,15.04077 7.333915,-7.33393 v 19.88863 z"
       id="path3050"
       style="fill:#5599ff;fill-opacity:0.899705;stroke-width:1.24303" />
    <g
       id="g3098"
       transform="matrix(0.85806979,0,0,0.85806979,49.777115,-73.59228)">
      <path
         id="path3054"
         style="fill:#000000;fill-opacity:0.99115;stroke-width:1.42531"
         d="m 237.53279,294.57012 -6.59185,29.72999 -0.75344,-1.06868 v 4.73771 l 2.28099,3.23699 1.46348,-6.5939 3.04943,-13.73404 1.603,10.6195 0.68937,4.58679 4.5408,-3.41064 9.09661,-6.83524 -4.95939,8.89764 -2.13941,3.83596 5.77846,-1.11726 10.46138,-2.02364 -6.14019,5.42603 -3.66645,3.24683 5.99912,0.0744 3.20084,0.0403 -6.25905,2.49854 h 5.97948 l 11.08459,-4.42558 -13.96297,-0.17568 11.72177,-10.37042 -19.25464,3.7238 10.63552,-19.07998 -19.82359,14.89625 z" />
      <g
         id="Icons-1"
         transform="matrix(-0.25291752,1.1741927,-1.1741927,-0.25291752,256.18941,277.80309)">
        <path
           d="m 82.005,66 v -9 l -29,-20.5 V 17 c 0,-3.9 -2,-9 -5,-9 -2.9,0 -5,5.1 -5,9 v 19.5 l -29,20.5 v 9 l 29,-14.5 v 21.8 l -10,8.7 v 6 l 15,-6 15,6 v -6 l -10,-8.7 V 51.5 Z m -30.313,8.809 9.313,8.1 v 2.135 l -12.257,-4.9 -0.743,-0.3 -0.743,0.3 -12.257,4.9 v -2.133 l 9.313,-8.1 0.687,-0.6 V 48.264 l -2.9,1.447 -26.1,13.053 v -4.729 l 28.154,-19.9 0.846,-0.6 V 17 c 0,-3.541 1.9,-7 3,-7 1.254,0 3,3.527 3,7 v 20.535 l 0.845,0.6 28.155,19.9 v 4.729 L 53.9,49.711 51.006,48.264 v 25.947 z"
           id="path3067" />
      </g>
    </g>
    <text
       xml:space="preserve"
       id="text2797-9-8"
       style="font-style:normal;font-variant:normal;font-weight:normal;font-stretch:normal;font-size:14.222px;line-height:0;font-family:'Times New Roman';-inkscape-font-specification:'Times New Roman, Normal';font-variant-ligatures:normal;font-variant-caps:normal;font-variant-numeric:normal;font-variant-east-asian:normal;white-space:pre;shape-inside:url(#rect2799-0-1);fill:#000000;fill-opacity:1;stroke:none;"
       transform="matrix(0.91589357,0,0,0.95598663,-152.43867,212.85006)"><tspan
         x="201.61328"
         y="27.3345"><tspan
           style="font-style:italic;font-variant:normal;font-weight:normal;font-stretch:normal;font-size:12.94px;line-height:1;font-family:'Times New Roman';-inkscape-font-specification:'Times New Roman, Italic';font-variant-ligatures:normal;font-variant-caps:normal;font-variant-numeric:normal;font-variant-east-asian:normal;fill:#b50000;fill-opacity:1">20</tspan><tspan
           style="font-style:normal;font-variant:normal;font-weight:normal;font-stretch:normal;font-size:11.646px;line-height:1;font-family:'Times New Roman';-inkscape-font-specification:'Times New Roman, Normal';font-variant-ligatures:normal;font-variant-caps:normal;font-variant-numeric:normal;font-variant-east-asian:normal;shape-inside:url(#rect2799-0-1)"> A</tspan><tspan
           style="font-size:10.352px">IRPLANE ACCIDENTS IN</tspan><tspan
           style="font-style:normal;font-variant:normal;font-weight:normal;font-stretch:normal;font-size:11.646px;line-height:1;font-family:'Times New Roman';-inkscape-font-specification:'Times New Roman, Normal';font-variant-ligatures:normal;font-variant-caps:normal;font-variant-numeric:normal;font-variant-east-asian:normal;shape-inside:url(#rect2799-0-1)"> </tspan></tspan><tspan
         x="201.61328"
         y="39.284371"><tspan
           style="font-style:normal;font-variant:normal;font-weight:normal;font-stretch:normal;font-size:11.646px;line-height:1;font-family:'Times New Roman';-inkscape-font-specification:'Times New Roman, Normal';font-variant-ligatures:normal;font-variant-caps:normal;font-variant-numeric:normal;font-variant-east-asian:normal;shape-inside:url(#rect2799-0-1)">2009, D</tspan><tspan
           style="font-size:10.352px">OWN</tspan><tspan
           style="font-style:normal;font-variant:normal;font-weight:normal;font-stretch:normal;font-size:11.646px;line-height:1;font-family:'Times New Roman';-inkscape-font-specification:'Times New Roman, Normal';font-variant-ligatures:normal;font-variant-caps:normal;font-variant-numeric:normal;font-variant-east-asian:normal;shape-inside:url(#rect2799-0-1)"> F</tspan><tspan
           style="font-size:10.352px">ROM</tspan><tspan
           style="font-style:normal;font-variant:normal;font-weight:normal;font-stretch:normal;font-size:11.646px;line-height:1;font-family:'Times New Roman';-inkscape-font-specification:'Times New Roman, Normal';font-variant-ligatures:normal;font-variant-caps:normal;font-variant-numeric:normal;font-variant-east-asian:normal;shape-inside:url(#rect2799-0-1)"> 88 I</tspan><tspan
           style="font-size:10.352px">N</tspan><tspan
           style="font-style:normal;font-variant:normal;font-weight:normal;font-stretch:normal;font-size:11.646px;line-height:1;font-family:'Times New Roman';-inkscape-font-specification:'Times New Roman, Normal';font-variant-ligatures:normal;font-variant-caps:normal;font-variant-numeric:normal;font-variant-east-asian:normal;shape-inside:url(#rect2799-0-1)"> 1972.  </tspan></tspan></text>
    <rect
       style="opacity:0.486352;fill:none;fill-opacity:1;stroke:none;stroke-width:0.529167;stroke-dasharray:12.7, 0.529167;filter:url(#filter3002)"
       id="rect4290"
       width="318.55832"
       height="113.77083"
       x="2.88922"
       y="303.25839"
       transform="matrix(0.85806979,0,0,0.85806979,20.022229,13.754549)" />
    <g
       id="g4374"
       transform="matrix(0.25682658,0,0,0.29537028,257.92732,163.45216)">
      <path
         id="path3799"
         stroke="#514848"
         stroke-width="0.6028"
         fill="#d9bb7a"
         d="m 48.944742,348.428 c -5.119952,0.0202 -8.793691,0.3764 -8.793691,0.3764 0,0 -13.134181,4.43389 -2.871258,4.53363 8.148902,0.0793 19.978687,13.75172 26.535062,27.33146 -0.996262,-0.80375 -1.962097,-1.48786 -2.836863,-1.88193 -4.586023,-2.06568 -41.534291,21.36855 -42.846624,41.09509 -0.664157,9.99754 10.147564,21.42331 18.77007,23.5069 9.75704,2.35778 0.167569,2.4991 1.045634,3.19934 6.243108,4.97814 14.556845,1.25664 23.869649,2.21555 18.944431,1.95061 24.010673,0.3783 28.085521,0 0,0 17.632628,2.77018 23.869648,-2.21555 0.87654,-0.70069 -8.72014,-0.84145 1.03706,-3.19934 8.62251,-2.08362 19.43418,-13.50936 18.77007,-23.5069 -1.31043,-19.72575 -38.258746,-43.15884 -42.846621,-41.09509 -0.877544,0.39526 -1.837426,1.08347 -2.836863,1.89048 6.555846,-13.58133 18.384834,-27.26002 26.535064,-27.3394 10.26292,-0.0999 -2.86253,-4.53363 -2.86253,-4.53363 0,0 -19.182026,-1.82335 -31.001228,2.61757 -1.760378,0.66149 -3.324754,1.143 -4.705349,1.52265 -1.382422,-0.37994 -2.950369,-0.85992 -4.714082,-1.52265 -6.64792,-2.49803 -15.624174,-3.01995 -22.207008,-2.99402 z"
         style="fill:none" />
      <path
         id="path3852"
         stroke="#846c42"
         stroke-width="2.07785"
         fill="none"
         d="m 59.774138,376.69344 c 9.510713,4.30795 -5.227637,1.56586 -4.395523,3.97748 1.98419,2.15376 5.200386,2.68658 7.973219,2.11511 23.414302,-4.25556 51.577876,-0.88411 37.443836,1.6144 5.01756,-13.952 -57.872315,6.39578 -53.57019,7.33716 3.433498,-1.16956 49.955979,-14.95768 53.71571,-14.21606 2.60958,-0.13268 3.06811,-4.67148 0.42058,-5.14826 -3.871119,-0.26861 -6.710628,2.79982 -9.500394,4.99401 2.186516,1.62007 -4.720432,7.8441 -16.812154,13.462 -0.870665,0.69858 -1.681639,1.47444 -2.392178,2.33579"
         style="fill:none;stroke:#514848;stroke-width:0.728398;stroke-miterlimit:4;stroke-dasharray:none;stroke-opacity:1" />
      <g
         id="text4845"
         opacity="0.57073"
         stroke="#835719"
         stroke-width="1.0356"
         transform="matrix(0.34160354,0,0,0.20493566,-5.2392777,335.41844)"
         style="opacity:0.85877;fill:#000000;stroke:#504e4c;stroke-opacity:0.938667">
        <path
           id="path4866"
           d="m 227.95,495.48 v -21.045 c -10.523,-1.3251 -19.077,-3.6829 -25.663,-7.0735 -6.5864,-3.3906 -12.276,-8.8662 -17.07,-16.427 -4.7936,-7.5606 -7.5801,-16.797 -8.3596,-27.709 l 21.162,-3.9752 c 1.6368,11.302 4.5208,19.603 8.6519,24.903 5.9238,7.4827 13.017,11.653 21.279,12.51 v -66.994 c -8.6519,-1.6368 -17.499,-4.9884 -26.54,-10.055 -6.7033,-3.7413 -11.867,-8.9246 -15.492,-15.55 -3.6244,-6.6252 -5.4367,-14.147 -5.4366,-22.565 -1e-5,-14.965 5.3002,-27.086 15.901,-36.361 7.0929,-6.2354 17.615,-10.055 31.568,-11.458 v -10.055 h 12.393 v 10.055 c 12.237,1.1694 21.941,4.7548 29.112,10.756 9.1974,7.6388 14.731,18.122 16.602,31.451 l -21.747,3.2737 c -1.2472,-8.262 -3.8389,-14.595 -7.775,-18.999 -3.9363,-4.4037 -9.334,-7.3072 -16.193,-8.7103 v 60.68 c 10.6,2.6502 17.615,4.7158 21.045,6.1966 6.5473,2.884 11.886,6.3916 16.018,10.523 4.131,4.1312 7.3072,9.0417 9.5288,14.732 2.2213,5.69 3.332,11.848 3.3322,18.473 -1.3e-4,14.576 -4.6378,26.735 -13.913,36.478 -9.2755,9.7431 -21.279,14.965 -36.011,15.667 v 21.279 z m 0,-184.26 c -8.1842,1.2473 -14.634,4.521 -19.35,9.821 -4.7157,5.3004 -7.0735,11.575 -7.0735,18.824 -4e-5,7.171 2.007,13.173 6.0212,18.005 4.0141,4.8327 10.815,8.691 20.402,11.575 z m 12.393,145.45 c 8.1841,-1.0133 14.946,-4.5598 20.285,-10.639 5.3391,-6.0797 8.0087,-13.601 8.0088,-22.565 -10e-5,-7.6385 -1.8903,-13.777 -5.6705,-18.414 -3.7804,-4.6376 -11.322,-8.7882 -22.623,-12.452 z"
           style="fill:#000000;stroke:#504e4c;stroke-opacity:0.938667" />
      </g>
    </g>
    <rect
       style="opacity:0;fill:#000000;fill-opacity:1;stroke:#514848;stroke-width:0.625016;stroke-miterlimit:4;stroke-dasharray:none;stroke-opacity:1"
       id="rect4427"
       width="272.92325"
       height="78.658539"
       x="22.501381"
       y="273.97141" />
    <rect
       style="opacity:0;fill:#000000;fill-opacity:1;stroke:#514848;stroke-width:0.625016;stroke-miterlimit:4;stroke-dasharray:none;stroke-opacity:1"
       id="rect4429"
       width="273.37729"
       height="68.669174"
       x="22.501381"
       y="273.97141" />
    <rect
       style="opacity:0;fill:#000000;fill-opacity:1;stroke:#4a5148;stroke-width:0.625016;stroke-miterlimit:4;stroke-dasharray:none;stroke-opacity:1"
       id="rect4453"
       width="20.432787"
       height="76.509438"
       x="16.403564"
       y="274.98535" />
    <rect
       style="opacity:0;fill:#ffccaa;fill-opacity:0.386667;stroke:#4c5148;stroke-width:0.625016;stroke-miterlimit:4;stroke-dasharray:none;stroke-opacity:1"
       id="rect4455"
       width="86.498802"
       height="19.070602"
       x="17.538719"
       y="337.87292" />
    <rect
       style="opacity:0;fill:#00059a;fill-opacity:0.386667;stroke:#4c5148;stroke-width:0.625016;stroke-miterlimit:4;stroke-dasharray:none;stroke-opacity:1"
       id="rect4457"
       width="86.498802"
       height="19.978725"
       x="16.630592"
       y="336.28369" />
    <rect
       style="opacity:0;fill:#00059a;fill-opacity:0.386667;stroke:#4c5148;stroke-width:0.625016;stroke-miterlimit:4;stroke-dasharray:none;stroke-opacity:1"
       id="rect4465"
       width="88.542076"
       height="13.848889"
       x="10.500759"
       y="335.82965" />
    <text
       xml:space="preserve"
       id="text4505"
       style="font-style:normal;font-weight:normal;font-size:4.93889px;line-height:0;font-family:sans-serif;white-space:pre;shape-inside:url(#rect4507);opacity:0.998;fill:#000000;fill-opacity:1;stroke:none;"
       transform="translate(31.220833,47.889583)" />
    <text
       xml:space="preserve"
       id="text4509"
       style="fill:black;fill-opacity:1;line-height:1.25;stroke:none;font-family:sans-serif;font-style:normal;font-weight:normal;font-size:10.58333336px;white-space:pre;shape-inside:url(#rect4511);" />
    <text
       xml:space="preserve"
       id="text4515"
       style="fill:black;fill-opacity:1;line-height:1.25;stroke:none;font-family:sans-serif;font-style:normal;font-weight:normal;font-size:10.58333336px;white-space:pre;shape-inside:url(#rect4517);" />
    <text
       xml:space="preserve"
       id="text4521"
       style="fill:black;fill-opacity:1;line-height:1.25;stroke:none;font-family:sans-serif;font-style:normal;font-weight:normal;font-size:10.58333336px;white-space:pre;shape-inside:url(#rect4523);" />
    <text
       xml:space="preserve"
       id="text4527"
       style="fill:black;fill-opacity:1;line-height:1.25;stroke:none;font-family:sans-serif;font-style:normal;font-weight:normal;font-size:10.58333336px;white-space:pre;shape-inside:url(#rect4529);" />
    <text
       xml:space="preserve"
       id="text4533"
       style="fill:black;fill-opacity:1;line-height:1.25;stroke:none;font-family:sans-serif;font-style:normal;font-weight:normal;font-size:10.58333336px;white-space:pre;shape-inside:url(#rect4535);" />
    <g
       id="g4473"
       transform="matrix(0.43654544,0,0,0.80298202,17.134787,-12.290392)">
      <rect
         x="20.079758"
         y="343.58401"
         width="17.32756"
         height="66.999901"
         id="rect4433"
         style="fill:#e47070;fill-opacity:1;stroke-width:1.15517" />
      <rect
         x="44.338352"
         y="400.26764"
         width="17.32756"
         height="10.316239"
         id="rect4435"
         style="fill:#286ed6;fill-opacity:0.669333;stroke-width:0.560004" />
    </g>
    <rect
       style="opacity:0;fill:#00059a;fill-opacity:0.386667;stroke:#4c5148;stroke-width:0.431257;stroke-miterlimit:4;stroke-dasharray:none;stroke-opacity:1"
       id="rect4459"
       width="25.872593"
       height="15.721719"
       x="37.694256"
       y="325.134" />
    <rect
       style="opacity:0;fill:#00059a;fill-opacity:0.386667;stroke:#4c5148;stroke-width:0.431257;stroke-miterlimit:4;stroke-dasharray:none;stroke-opacity:1"
       id="rect4461"
       width="5.4286242"
       height="8.0733156"
       x="37.232246"
       y="311.7045" />
    <rect
       style="opacity:0;fill:#00059a;fill-opacity:0.386667;stroke:#4c5148;stroke-width:0.431257;stroke-miterlimit:4;stroke-dasharray:none;stroke-opacity:1"
       id="rect4463"
       width="0.69301587"
       height="7.0110369"
       x="56.521194"
       y="340.21835" />
    <text
       xml:space="preserve"
       id="text4475"
       style="font-style:normal;font-weight:normal;font-size:5.62405px;line-height:0;font-family:sans-serif;white-space:pre;shape-inside:url(#rect4477);opacity:0.998;fill:#000000;fill-opacity:1;stroke:none;"
       transform="matrix(0.43654544,0,0,0.80298202,21.985898,-14.414949)"><tspan
         x="29.369141"
         y="351.47084"><tspan
           style="font-size:5.62405px;line-height:1.05">Over 80k</tspan><tspan
           style="font-size:5.62405px;line-height:1.15"> people involved in</tspan><tspan
           style="font-style:normal;font-variant:normal;font-weight:normal;font-stretch:normal;font-size:5.62405px;line-height:1.25;font-family:sans-serif;-inkscape-font-specification:'sans-serif, Normal';font-variant-ligatures:normal;font-variant-caps:normal;font-variant-numeric:normal;font-variant-east-asian:normal"> </tspan></tspan><tspan
         x="29.369141"
         y="358.5009"><tspan
           style="font-style:normal;font-variant:normal;font-weight:normal;font-stretch:normal;font-size:5.62405px;line-height:1.25;font-family:sans-serif;-inkscape-font-specification:'sans-serif, Normal';font-variant-ligatures:normal;font-variant-caps:normal;font-variant-numeric:normal;font-variant-east-asian:normal">fatal car accidents each year.</tspan></tspan></text>
    <text
       xml:space="preserve"
       style="font-style:normal;font-weight:normal;font-size:4.93889px;line-height:1.25;font-family:sans-serif;white-space:pre;inline-size:61.281;fill:#000000;fill-opacity:1;stroke:none;stroke-width:0.264583"
       x="70.379166"
       y="392.64166"
       id="text4541"
       transform="matrix(0.62221458,0,0,0.80298202,-2.0534717,-26.458578)"><tspan
         x="70.379166"
         y="392.64166"><tspan
           style="font-size:6.13532px;stroke-width:0.264583">Less than 1500 </tspan></tspan><tspan
         x="70.379166"
         y="400.31082"><tspan
           style="font-size:6.13532px;stroke-width:0.264583">people involved in </tspan></tspan><tspan
         x="70.379166"
         y="407.97998"><tspan
           style="font-size:6.13532px;stroke-width:0.264583">fatal airplane </tspan></tspan><tspan
         x="70.379166"
         y="415.64914"><tspan
           style="font-size:6.13532px;stroke-width:0.264583">crashes per year</tspan></tspan></text>
    <g
       id="Icons-6"
       transform="matrix(0.32032734,0,0,0.58921036,85.846545,261.09046)">
      <path
         d="M 51.3883,73.627 32.7914,71.2422 c -0.012,0.2737 -0.0281,0.5478 -0.0636,0.8245 -0.0527,0.3891 -0.1288,0.7746 -0.2278,1.1545 l 18.6725,2.3945 c 7e-4,-0.3928 0.025,-0.7851 0.0727,-1.175 0.0354,-0.2757 0.0855,-0.5462 0.1431,-0.8137 z"
         id="path4543" />
      <path
         d="m 23.0088,78.6265 c 4.3118,-0.0187 7.7921,-3.5293 7.7734,-7.8411 -0.0186,-4.2906 -3.4962,-7.7622 -7.7869,-7.7734 v 0 c -4.3117,0.0062 -7.802,3.5064 -7.7959,7.8181 0.0056,3.9218 2.9198,7.2308 6.8095,7.7319 0.3316,0.0426 0.6656,0.0642 0.9999,0.0645 z m -5.7649,-8.5457 c 0.4059,-3.1834 3.3156,-5.435 6.499,-5.0291 3.1834,0.4059 5.435,3.3156 5.0291,6.499 -0.4059,3.1834 -3.3156,5.435 -6.499,5.0291 -0.003,-4e-4 -0.0061,-8e-4 -0.0091,-0.0012 -3.1801,-0.4089 -5.4272,-3.3175 -5.02,-6.4978 z"
         id="path4545" />
      <path
         d="M 80.0048,83 V 29 H 81.21 c 0.9311,0 1.7389,-0.6427 1.9481,-1.55 L 85.87,15.7 c 0.161,-0.6796 -0.048,-1.3938 -0.55,-1.8794 -0.792,-0.7493 -2.355,-1.6211 -5.3145,-1.7861 V 11 c 0,-0.5523 -0.4477,-1 -1,-1 -0.5523,0 -1,0.4477 -1,1 v 1.0347 c -2.96,0.165 -4.5225,1.0368 -5.3149,1.7866 -0.5021,0.4853 -0.7113,1.1992 -0.5506,1.8787 l 2.7114,11.75 c 0.2095,0.9073 1.0174,1.5499 1.9486,1.55 h 1.2046 v 32.4436 l -2,1.5564 -2,-4 -3,4 -3,-4 -2.6209,1.0566 -0.1,-0.0127 c -0.878,-0.1036 -1.6697,-0.5777 -2.1756,-1.3027 l -9.39,-12.0561 C 52.5905,45.2364 50.9268,44.3033 49.1027,44.0964 L 36.1291,42.4326 h -5e-4 l -10.52,-1.3491 c -0.3026,-0.0387 -0.6074,-0.0582 -0.9125,-0.0581 -1.518,-0.0097 -2.9967,0.4818 -4.2068,1.3984 L 8.5314,51.7424 C 7.78351,52.3091 7.29881,53.156 7.1891,54.0879 l -1.1282,8.7974 c -0.47225,3.7704 2.18878,7.2145 5.9563,7.7091 l 1.1862,0.1522 c 0.0012,-0.3927 0.0256,-0.785 0.073,-1.1748 0.0353,-0.2757 0.0856,-0.5464 0.1431,-0.814 L 12.2727,68.6109 C 9.59447,68.2677 7.70152,65.8184 8.04467,63.1402 c 10e-6,-1e-4 2e-5,-1e-4 3e-5,-2e-4 l 1.0622,-8.2839 55.9237,7.1716 c 0.0291,0.0044 0.0548,0.0157 0.0841,0.0193 l 0.5178,0.0662 0.4842,-0.1951 1.21,-0.488 2.0777,2.77 1.6,2.1333 1.6,-2.1333 1.0584,-1.4112 0.5528,1.1057 1.0913,2.1826 1.9258,-1.4987 0.7717,-0.6006 v 5.8794 l -0.7468,5.6311 c -0.1011,0.791 -0.8243,1.3502 -1.6152,1.249 -2e-4,0 -3e-4,0 -4e-4,0 l -4.8823,-0.626 c -0.012,0.2735 -0.0281,0.5479 -0.0635,0.8242 -0.0527,0.3891 -0.1288,0.7747 -0.2278,1.1546 l 4.9192,0.6308 c 0.9407,0.1217 1.8894,-0.1553 2.6168,-0.7641 V 83 H 63.698 c 4.0385,-1.5095 6.0887,-6.007 4.5792,-10.0456 -1.1404,-3.0512 -4.0555,-5.0735 -7.3129,-5.0733 v 0 c -2.9299,-0.0345 -5.6247,1.5997 -6.9485,4.2137 -1.9677,3.8555 -0.4374,8.5761 3.418,10.5439 0.2665,0.136 0.5406,0.2566 0.8209,0.3613 H 4.0048 v 2 h 88 V 83 Z M 74.0894,15.251 C 74.5207,14.8562 75.8243,14 79.0048,14 c 3.2437,0 4.5352,0.8906 4.9155,1.2505 L 81.2094,27 H 76.8007 Z M 52.14,47.9141 61.1775,59.5173 35.37,56.2075 36.866,44.5435 48.8482,46.08 c 1.3006,0.1397 2.4887,0.8016 3.2918,1.8341 z M 21.7122,44.0063 c 0.8596,-0.6461 1.9083,-0.9909 2.9836,-0.9809 0.2201,1e-4 0.4399,0.014 0.6582,0.0417 l 9.5284,1.222 -1.4959,11.6643 -23.165,-2.9709 c -0.0131,-0.0016 -0.0152,-0.01 -0.0048,-0.0178 z m 33.4544,31.8873 c -0.1111,-3.2076 2.3992,-5.898 5.6068,-6.009 0.0635,-0.0022 0.1271,-0.0034 0.1906,-0.0035 3.1363,-0.0026 5.7085,2.4843 5.8117,5.6189 0.1019,3.2079 -2.416,5.891 -5.6239,5.9929 -0.058,0.0018 -0.116,0.0028 -0.1741,0.0029 -3.1297,0.0026 -5.6991,-2.4743 -5.8111,-5.602 z"
         id="path4547" />
    </g>
    <text
       xml:space="preserve"
       id="text1030"
       style="font-style:normal;font-weight:normal;font-size:10.5833px;line-height:1.25;font-family:sans-serif;white-space:pre;shape-inside:url(#rect1032);fill:#000000;fill-opacity:1;stroke:none;"
       transform="matrix(0.43654544,0,0,0.80298202,22.90992,-19.301429)"><tspan
         x="219.42773"
         y="364.0539"><tspan
           style="font-size:8.46667px">CARS = SAFE</tspan><tspan
           style="shape-inside:url(#rect1032)">
</tspan></tspan><tspan
         x="219.42773"
         y="377.28303"><tspan
           style="font-size:8.46667px">AIRPLANES = SAFER</tspan></tspan></text>
    <rect
       style="opacity:0;fill:#00059a;fill-opacity:0.386667;stroke:#4c5148;stroke-width:0.431257;stroke-miterlimit:4;stroke-dasharray:none;stroke-opacity:1"
       id="rect1070"
       width="25.872593"
       height="15.721719"
       x="174.37848"
       y="324.44601" />
    <rect
       style="opacity:0;fill:#00059a;fill-opacity:0.386667;stroke:#4c5148;stroke-width:0.431257;stroke-miterlimit:4;stroke-dasharray:none;stroke-opacity:1"
       id="rect1072"
       width="5.4286242"
       height="8.0733156"
       x="173.91646"
       y="311.01648" />
    <rect
       style="opacity:0;fill:#00059a;fill-opacity:0.386667;stroke:#4c5148;stroke-width:0.431257;stroke-miterlimit:4;stroke-dasharray:none;stroke-opacity:1"
       id="rect1074"
       width="0.69301587"
       height="7.0110369"
       x="193.2054"
       y="339.53036" />
    <path
       style="opacity:0.941935;fill:none;stroke:#6a3232;stroke-width:0.79375;stroke-linecap:butt;stroke-linejoin:round;stroke-miterlimit:4;stroke-dasharray:none;stroke-dashoffset:0;stroke-opacity:0.46371;filter:url(#filter1163)"
       d="m 186.01959,339.69957 -16.03617,16.83798 16.30344,12.56167 -14.69983,11.75986 12.2944,11.75985 -13.36347,14.16529 v -0.53453"
       id="path1129"
       transform="matrix(0.86256951,0,0,0.80788429,20.596682,-12.119951)" />
    <text
       xml:space="preserve"
       id="text1167"
       style="fill:black;fill-opacity:1;line-height:1.25;stroke:none;font-family:sans-serif;font-style:normal;font-weight:normal;font-size:10.58333336px;white-space:pre;shape-inside:url(#rect1169);" />
    <text
       xml:space="preserve"
       style="font-style:normal;font-weight:normal;font-size:10.5833px;line-height:1.25;font-family:sans-serif;fill:#000000;fill-opacity:1;stroke:none;stroke-width:0.264583"
       x="207.66843"
       y="351.19217"
       id="text1175"><tspan
         sodipodi:role="line"
         id="tspan1173"
         x="207.66843"
         y="351.19217"
         style="stroke-width:0.264583" /></text>
    <text
       xml:space="preserve"
       style="font-style:normal;font-weight:normal;font-size:10.5833px;line-height:1.25;font-family:sans-serif;fill:#000000;fill-opacity:1;stroke:none;stroke-width:0.264583"
       x="217.29013"
       y="382.46271"
       id="text1187"><tspan
         sodipodi:role="line"
         id="tspan1185"
         x="217.29013"
         y="382.46271"
         style="stroke-width:0.264583"></tspan></text>
    <text
       xml:space="preserve"
       id="text1189"
       style="fill:black;fill-opacity:1;line-height:1.25;stroke:none;font-family:sans-serif;font-style:normal;font-weight:normal;font-size:10.58333336px;white-space:pre;shape-inside:url(#rect1191);" />
    <text
       xml:space="preserve"
       id="text1195"
       style="fill:black;fill-opacity:1;line-height:1.25;stroke:none;font-family:sans-serif;font-style:normal;font-weight:normal;font-size:10.58333336px;white-space:pre;shape-inside:url(#rect1197);" />
    <text
       xml:space="preserve"
       style="font-style:normal;font-weight:normal;font-size:10.5833px;line-height:1.25;font-family:sans-serif;fill:#000000;fill-opacity:1;stroke:none;stroke-width:0.264583"
       x="206.33208"
       y="348.2522"
       id="text1203"><tspan
         sodipodi:role="line"
         id="tspan1201"
         x="206.33208"
         y="348.2522"
         style="stroke-width:0.264583"></tspan></text>
    <text
       xml:space="preserve"
       id="text1205"
       style="font-style:normal;font-weight:normal;font-size:7.05556px;line-height:1.25;font-family:sans-serif;white-space:pre;shape-inside:url(#rect1207);fill:#000000;fill-opacity:1;stroke:none;"
       transform="matrix(0.85806979,0,0,0.85806979,21.398244,-29.131266)"><tspan
         x="194.83984"
         y="351.21435"><tspan
           style="font-size:7.05556px">People die
</tspan></tspan><tspan
         x="194.83984"
         y="360.0338"><tspan
           style="font-size:7.05556px">
</tspan></tspan><tspan
         x="194.83984"
         y="368.85326"><tspan
           style="font-size:7.05556px">Costs airlines millions
</tspan></tspan><tspan
         x="194.83984"
         y="377.67272"><tspan
           style="font-size:7.05556px">
</tspan></tspan><tspan
         x="194.83984"
         y="386.49218"><tspan
           style="font-size:7.05556px">Goal: Make flying safe!</tspan></tspan></text>
    <ellipse
       style="opacity:0.941935;fill:#000000;fill-opacity:0.975807;stroke:#040404;stroke-width:0.264341;stroke-linejoin:round;stroke-miterlimit:4;stroke-dasharray:none;stroke-dashoffset:0;stroke-opacity:0.983871"
       id="path1211"
       cx="-185.49155"
       cy="270.26678"
       rx="0.67396277"
       ry="0.78171527"
       transform="scale(-1,1)" />
    <ellipse
       style="opacity:0.941935;fill:#000000;fill-opacity:0.975807;stroke:#040404;stroke-width:0.281555;stroke-linejoin:round;stroke-miterlimit:4;stroke-dasharray:none;stroke-dashoffset:0;stroke-opacity:0.983871"
       id="ellipse1213"
       cx="185.49155"
       cy="300.53912"
       rx="0.77310836"
       ry="0.77310848" />
    <ellipse
       style="opacity:0.941935;fill:#000000;fill-opacity:0.975807;stroke:#040404;stroke-width:0.281555;stroke-linejoin:round;stroke-miterlimit:4;stroke-dasharray:none;stroke-dashoffset:0;stroke-opacity:0.983871"
       id="ellipse1215"
       cx="185.49155"
       cy="285.40295"
       rx="0.77310836"
       ry="0.77310848" />
    <rect
       style="opacity:0.941935;fill:url(#linearGradient1483);fill-opacity:1;stroke:none;stroke-width:0.68196;stroke-linejoin:round;stroke-miterlimit:4;stroke-dasharray:none;stroke-dashoffset:0;stroke-opacity:1"
       id="rect1217"
       width="268.55148"
       height="49.306351"
       x="25.526722"
       y="317.16638" />
    <g
       id="Icons-0"
       transform="matrix(0.22703096,0,0,0.22703096,49.179444,319.91569)">
      <path
         d="m 46.515,19 c 4.4183,0 8,-3.5817 8,-8 0,-4.41828 -3.5817,-8 -8,-8 -4.4183,0 -8,3.58172 -8,8 0.005,4.4162 3.5838,7.995 8,8 z m 0,-14 c 3.3137,0 6,2.68629 6,6 0,3.3137 -2.6863,6 -6,6 -3.3137,0 -6,-2.6863 -6,-6 0.0039,-3.31211 2.6879,-5.99614 6,-6 z"
         id="path1219" />
      <path
         d="m 32.342,55.392 c 0.2163,-0.5082 -0.0203,-1.0955 -0.5285,-1.3118 -10e-5,0 -3e-4,-10e-5 -5e-4,-2e-4 -0.624,-0.266 -1.431,-0.851 -1.249,-2.822 L 33.527,30.25 c 0.0533,-0.4776 0.1922,-0.9417 0.41,-1.37 0.1306,-0.2389 0.2826,-0.4655 0.454,-0.677 3.1279,-3.3002 7.4681,-5.1797 12.015,-5.203 0.036,0 0.065,-0.018 0.1,-0.022 0.0366,0.0093 0.0736,0.0167 0.111,0.022 h 0.1 c 1.7663,-10e-5 3.5199,0.2994 5.186,0.886 1.2261,0.4104 2.3993,0.9645 3.495,1.651 0.6118,-0.4496 1.2855,-0.8083 2,-1.065 C 54.2471,22.2286 50.4789,21.0157 46.611,21 c -0.034,0 -0.063,0.017 -0.1,0.02 C 46.474,21.023 46.448,21 46.411,21 h -0.1 c -1.9818,-7e-4 -3.9495,0.3333 -5.82,0.988 -2.9006,0.9725 -5.5128,2.6532 -7.6,4.89 -0.2692,0.3236 -0.507,0.6722 -0.71,1.041 -0.3347,0.6394 -0.5502,1.3344 -0.636,2.051 l -2.967,21.056 c -0.285,3.061 1.176,4.351 2.452,4.894 0.1239,0.0531 0.2572,0.0803 0.392,0.08 0.4008,0 0.7629,-0.2393 0.92,-0.608 z"
         id="path1221" />
      <path
         d="m 57.529,50.748 c -0.588,0.4 -1.177,0.776 -1.765,1.109 L 59.193,64 H 33.833 L 40.477,40.27 40.515,32 c 0,-0.5523 -0.4477,-1 -1,-1 -0.5523,0 -1,0.4477 -1,1 v 7.863 L 31.2,66 h 6.319 v 27 h 18 V 66 H 61.84 Z M 39.515,66 h 6 v 25 h -6 z m 14,25 h -6 V 66 h 6 z"
         id="path1223" />
      <path
         d="m 64.175,13 c -3.3137,0 -6,2.6863 -6,6 0,3.3137 2.6863,6 6,6 3.3137,0 6,-2.6863 6,-6 -0.0033,-3.3123 -2.6877,-5.9967 -6,-6 z m 0,10 c -2.2091,0 -4,-1.7909 -4,-4 0,-2.2091 1.7909,-4 4,-4 2.2091,0 4,1.7909 4,4 0,2.2091 -1.7909,4 -4,4 z"
         id="path1225" />
      <path
         d="m 61.063,26.079 c -3.2453,-0.5302 -6.3059,1.6707 -6.8362,4.916 -3e-4,0.0017 -5e-4,0.0033 -8e-4,0.005 -0.8,4.91 -3.051,8.016 -6.878,9.5 -3.0666,1.1874 -4.5899,4.6359 -3.4025,7.7025 1.1874,3.0666 4.6359,4.5899 7.7025,3.4025 2.5344,-0.9725 4.872,-2.3954 6.9,-4.2 0.6703,0.3884 1.4303,0.5953 2.205,0.6 2.477,0.005 4.4891,-1.9989 4.4941,-4.4759 0.0025,-1.2649 -0.5292,-2.4721 -1.4641,-3.3241 1.0621,-2.3149 1.8023,-4.7643 2.2,-7.28 0.532,-3.2489 -1.6705,-6.3139 -4.9194,-6.8459 -2e-4,0 -4e-4,-10e-5 -6e-4,-10e-5 z M 60.752,46 c -1.3807,0 -2.5,-1.1193 -2.5,-2.5 0,-1.3807 1.1193,-2.5 2.5,-2.5 1.3807,0 2.5,1.1193 2.5,2.5 0,1.3807 -1.1193,2.5 -2.5,2.5 z m 3.253,-13.407 c -0.3609,2.2829 -1.0255,4.5073 -1.976,6.614 -0.4133,-0.1311 -0.8435,-0.2008 -1.277,-0.207 -2.4814,-0.0023 -4.4949,2.0074 -4.4972,4.4888 -8e-4,0.9143 0.2773,1.8071 0.7972,2.5592 -1.8096,1.578 -3.8829,2.825 -6.125,3.684 -0.4549,0.1772 -0.9388,0.2681 -1.427,0.268 -1.6313,-0.0077 -3.0931,-1.0094 -3.689,-2.528 -0.7872,-2.0368 0.2248,-4.3262 2.261,-5.115 4.545,-1.759 7.2,-5.37 8.131,-11.039 0.3114,-1.9081 1.9566,-3.3115 3.89,-3.318 0.2167,3e-4 0.4331,0.0181 0.647,0.053 2.1538,0.3545 3.6143,2.3854 3.265,4.54 z"
         id="path1227" />
    </g>
    <g
       id="Icons-30"
       transform="matrix(-0.22703096,0,0,0.22703096,291.45679,319.91569)">
      <path
         d="m 46,19 c 4.4183,0 8,-3.5817 8,-8 0,-4.41828 -3.5817,-8 -8,-8 -4.4183,0 -8,3.58172 -8,8 0.005,4.4162 3.5838,7.995 8,8 z M 46,5 c 3.3137,0 6,2.68629 6,6 0,3.3137 -2.6863,6 -6,6 -3.3137,0 -6,-2.6863 -6,-6 0.0033,-3.31234 2.6877,-5.99669 6,-6 z"
         id="path1267" />
      <path
         d="m 61.37,57.839 c -0.0183,-0.9642 0.4687,-1.8679 1.284,-2.383 l 0.143,-0.11 c 1.9883,-1.8528 3.0981,-4.4616 3.054,-7.179 -0.104,-2.6949 -1.0708,-5.2851 -2.758,-7.389 L 53.854,27.47 C 53.588,27.093 53.33,26.704 53.07,26.313 52.4945,25.4095 51.8654,24.5412 51.186,23.713 49.7322,22.0253 47.6272,21.0383 45.4,21 c -1.9549,0.0248 -3.8406,0.7274 -5.335,1.988 -0.565,0.4 -1.736,1.221 -3.131,2.2 -2.91,2.043 -6.9,4.841 -8.265,5.831 -1.4464,0.948 -2.3588,2.5246 -2.46,4.251 -0.028,1.5783 0.7047,3.0738 1.969,4.019 2.679,2.112 5.386,4.23 8.095,6.325 0.4369,0.338 1.065,0.2579 1.403,-0.179 0.338,-0.4369 0.2579,-1.065 -0.179,-1.403 -2.7,-2.091 -5.407,-4.2 -8.074,-6.308 -0.7688,-0.5523 -1.2218,-1.4434 -1.215,-2.39 0.0863,-1.1009 0.6872,-2.0965 1.621,-2.686 1.37,-0.99 5.348,-3.784 8.254,-5.823 1.4,-0.982 2.571,-1.806 3.21,-2.263 1.1438,-0.9797 2.5923,-1.5318 4.098,-1.562 1.6475,0.0338 3.2026,0.7677 4.276,2.018 0.6257,0.7653 1.2061,1.5667 1.738,2.4 0.27,0.405 0.538,0.807 0.809,1.193 l 9.279,13.36 c 1.4357,1.7764 2.2626,3.967 2.359,6.249 0.0306,2.1135 -0.8232,4.1436 -2.355,5.6 -1.3644,0.9068 -2.167,2.4512 -2.125,4.089 0.0443,0.7788 0.1881,1.5487 0.428,2.291 L 60.91,64 H 36.788 l 3.56,-13.372 v 0 L 43.33,39.543 c 0.0546,-0.2177 0.0327,-0.4475 -0.062,-0.651 l -2.028,-4.736 0.8,-0.54 c 0.4527,-0.3164 0.5632,-0.9398 0.2469,-1.3925 -0.309,-0.4421 -0.9128,-0.5595 -1.3649,-0.2655 l -3.951,2.664 v 0 c -0.4523,0.3169 -0.5622,0.9404 -0.2453,1.3928 0.3097,0.4421 0.9145,0.5586 1.3663,0.2632 v 0 0 l 0.062,-0.042 1.395,-0.941 1.756,4.065 -2.071,7.71 c 0,0.014 -0.015,0.024 -0.018,0.037 l -0.793,2.979 -0.006,0.021 v 0 L 34.186,66 h 9.847 v 27 h 9.761 V 66 h 9.785 l -1.87,-6.388 C 61.5223,59.0375 61.4084,58.4419 61.37,57.839 Z M 51.794,91 H 46.033 V 66 h 5.761 z"
         id="path1269" />
    </g>
    <g
       id="Icons-4"
       transform="matrix(0.22703096,0,0,0.22703096,33.018997,341.35822)">
      <path
         d="m 61.126,29.853 -2.782,3.535 -4.044,-1.431 2.089,3.795 -2.673,3.628 4.361,-1.22 2.586,3.658 0.288,-4.47 4.139,-1.507 -4.045,-1.432 z"
         id="path1282" />
      <path
         d="m 67.6,23.006 c 4.4183,0 8,-3.5817 8,-8 0,-4.4183 -3.5817,-8 -8,-8 -4.4183,0 -8,3.5817 -8,8 0.0137,4.4126 3.5874,7.9863 8,8 z m 0,-14 c 3.3137,0 6,2.6863 6,6 0,3.3137 -2.6863,6 -6,6 -3.2787,0.035 -5.965,-2.5946 -6,-5.8733 -5e-4,-0.0422 -5e-4,-0.0845 0,-0.1267 0.0011,-3.3142 2.6858,-6.00159 6,-6.006 z"
         id="path1284" />
      <path
         d="M 56.972,23.385 C 47.5,22.574 40.555,23.513 37.118,24.506 L 2,35.245 v 0.739 c 0,14.723 6.8,17.4 13.368,19.986 0.894,0.352 1.788,0.7 2.675,1.093 5.184,2.21 7.618,5.423 8.9,11.767 l 1.451,-2.582 C 27.285,61.1919 23.6884,57.0427 18.841,55.227 17.941,54.832 17.022,54.47 16.105,54.109 9.994,51.705 4.22,49.433 4.006,36.723 l 33.682,-10.3 c 3.8139,-1.056 7.7546,-1.5836 11.712,-1.568 l -12.95,6.906 c -1.8469,0.9846 -2.8645,3.0335 -2.533,5.1 l 1.9,10.454 0.012,0.085 c 0.2094,1.6156 1.3033,2.9792 2.835,3.534 l -7.039,13.638 -9.611,17.113 c -0.6564,1.138 -0.8293,2.4916 -0.48,3.758 0.3421,1.2424 1.1744,2.2924 2.306,2.909 0.7561,0.4213 1.6065,0.6442 2.472,0.648 0.4173,4e-4 0.8328,-0.0538 1.236,-0.161 1.2564,-0.3349 2.3187,-1.1736 2.936,-2.318 l 14.471,-25.945 5.718,7.389 -8.215,11.23 c -1.5434,2.2122 -1.0013,5.2566 1.2109,6.8 0.0024,0.0017 0.0047,0.0034 0.0071,0.005 2.1635,1.4393 5.0724,0.9543 6.652,-1.109 L 60.865,70.422 c 0.5873,-0.6864 0.9363,-1.5446 0.995,-2.446 0.0052,-0.0411 0.0078,-0.0825 0.008,-0.124 v -0.481 c -0.0231,-0.9484 -0.3592,-1.8625 -0.956,-2.6 -0.0298,-0.0437 -0.0633,-0.0849 -0.1,-0.123 L 55.379,55.388 67.594,42.239 92.041,20.386 c 1.9655,-1.7878 2.1144,-4.8287 0.333,-6.8 -0.8652,-0.9319 -2.055,-1.4963 -3.324,-1.577 -1.2701,-0.0892 -2.5201,0.3543 -3.45,1.224 L 70.67,26.482 C 66.283,24.7754 61.6664,23.7317 56.972,23.385 Z M 53.4,54.569 c -0.013,0.014 -0.016,0.032 -0.028,0.046 -0.0416,0.055 -0.0778,0.114 -0.108,0.176 -0.0315,0.0524 -0.058,0.1076 -0.079,0.165 -0.0157,0.0609 -0.0254,0.1232 -0.029,0.186 -0.01,0.0628 -0.014,0.1264 -0.012,0.19 0.0083,0.0598 0.022,0.1187 0.041,0.176 0.0154,0.0689 0.0382,0.136 0.068,0.2 0.008,0.016 0.008,0.035 0.017,0.051 l 5.868,10 c 0.0416,0.0733 0.0931,0.1406 0.153,0.2 l 0.037,0.038 c 0.3293,0.3841 0.5186,0.8684 0.537,1.374 v 0.417 c -0.0158,0.467 -0.1828,0.9162 -0.476,1.28 -0.0365,0.0369 -0.07,0.0767 -0.1,0.119 L 48.725,83.694 c -0.93,1.2078 -2.6328,1.4966 -3.909,0.663 -1.3012,-0.8987 -1.6323,-2.6797 -0.741,-3.986 L 52.73,68.539 c 0.2622,-0.3589 0.2561,-0.8478 -0.015,-1.2 l -7.091,-9.164 c -0.0447,-0.0609 -0.0964,-0.1162 -0.154,-0.165 -0.0885,-0.0765 -0.1902,-0.1365 -0.3,-0.177 -0.1357,-0.0503 -0.2806,-0.0711 -0.425,-0.061 -0.1447,0.0103 -0.2854,0.0522 -0.412,0.123 -0.1035,0.0576 -0.1959,0.1331 -0.273,0.223 -0.0482,0.0561 -0.0898,0.1175 -0.124,0.183 l -15.2,27.253 c -0.3556,0.6669 -0.9707,1.1575 -1.7,1.356 -0.7573,0.1905 -1.5591,0.0794 -2.236,-0.31 -0.6588,-0.3593 -1.1435,-0.9706 -1.343,-1.694 -0.2067,-0.7524 -0.1022,-1.5564 0.29,-2.231 l 9.635,-17.154 7.386,-14.309 c 0.04,0 0.08,0 0.121,-0.005 1.177,-0.1642 2.2395,-0.7921 2.951,-1.744 0.2014,-0.274 0.3711,-0.5699 0.506,-0.882 3.3795,2.0634 7.174,3.3526 11.111,3.775 z m -7.18,-16.633 3.4,-1.88 c 0.4898,-0.2552 0.68,-0.8591 0.4249,-1.3489 -0.2552,-0.4898 -0.8591,-0.68 -1.3489,-0.4248 -0.0145,0.0075 -0.0289,0.0154 -0.043,0.0237 L 41.83,38.08 c -0.3788,0.2087 -0.5805,0.6371 -0.5,1.062 l 1.386,7.289 c 0.1905,1.3552 -0.7538,2.6083 -2.109,2.7988 C 39.3607,49.4049 38.181,48.618 37.864,47.4 L 35.886,36.51 c -0.1868,-1.2142 0.4182,-2.4131 1.506,-2.984 l 14.4,-7.684 c 0.632,-0.3445 1.3348,-0.5389 2.054,-0.568 5.7097,-0.003 11.3644,1.1155 16.643,3.292 l 0.577,0.237 15.876,-14.092 c 0.5336,-0.5029 1.2537,-0.759 1.985,-0.706 0.7597,0.0504 1.4711,0.39 1.988,0.949 1.023,1.1574 0.9226,2.923 -0.225,3.957 l -24.5,21.9 -8.138,8.759 c -0.079,0 -8.109,0.047 -13.521,-4.31 l -0.46,-2.419 z"
         id="path1286" />
    </g>
    <g
       id="Icons-5"
       transform="matrix(0.22703096,0,0,0.22703096,221.26046,341.59495)">
      <path
         d="m 31.474,39 h 1.035 c 2.2046,8.5526 10.9249,13.6987 19.4775,11.4941 5.7336,-1.4779 10.1814,-6.0029 11.5605,-11.7611 l 0.67,0.218 c 0.0997,0.0326 0.2041,0.0492 0.309,0.049 0.1711,-2e-4 0.3394,-0.0439 0.489,-0.127 0.243,-0.1364 0.4181,-0.368 0.483,-0.639 1.627,-6.7426 -0.7665,-13.8199 -6.152,-18.191 l 3.133,-0.574 c 0.542,-0.1063 0.8951,-0.6318 0.7889,-1.1738 -0.1045,-0.5326 -0.6148,-0.8847 -1.1499,-0.7932 l -5.113,0.937 -0.092,-0.056 1.387,-1.418 c 0.3866,-0.3949 0.3799,-1.0284 -0.015,-1.415 -0.3949,-0.3866 -1.0284,-0.3799 -1.415,0.015 l -1.829,1.87 c -0.052,-0.022 -0.1,-0.041 -0.156,-0.062 L 53.179,12.62 c -0.1661,-0.5267 -0.7278,-0.819 -1.2545,-0.6529 -0.5267,0.1661 -0.819,0.7277 -0.6529,1.2545 0.0084,0.0265 0.0178,0.0527 0.0284,0.0784 l 1.181,3.291 C 42.8565,14.1129 33.0455,19.9062 30.5674,29.5307 29.8331,32.3826 29.81,35.3711 30.5,38.234 c 0.1083,0.45 0.5112,0.7668 0.974,0.766 z M 48,49 C 41.3052,49.0147 35.5433,44.2726 34.27,37.7 l 1.411,-2.822 c 1.3173,-0.3411 2.5788,-0.8695 3.746,-1.569 1.021,-0.6318 1.9706,-1.3725 2.832,-2.209 0.0025,-0.0044 0.0081,-0.006 0.0125,-0.0035 0.0044,0.0025 0.006,0.0081 0.0035,0.0125 -0.04,0.11 -0.06,0.159 -0.07,0.183 -0.016,0.041 -0.032,0.08 -0.048,0.119 -0.3956,1.0738 -1.0668,2.0246 -1.946,2.757 -0.4605,0.3048 -0.5867,0.9253 -0.2819,1.3858 0.2372,0.3583 0.6768,0.5251 1.0919,0.4142 0.258,-0.069 6.374,-1.7 10.208,-4.358 1.9337,-1.3355 3.7413,-2.8452 5.4,-4.51 1.4465,1.3941 2.6345,3.0334 3.509,4.842 0.732,1.7632 1.2816,3.5968 1.64,5.472 C 60.6308,44.1224 54.8057,49.0207 48,49 Z m 0,-31 c 8.7889,-0.0474 15.9522,7.039 15.9997,15.8279 0.0041,0.76 -0.0463,1.5193 -0.1507,2.2721 0,0.005 -0.004,0.009 -0.009,0.009 -0.005,0 -0.009,-0.004 -0.009,-0.009 -0.0793,-0.1819 -0.2113,-0.3358 -0.379,-0.442 -0.3687,-1.5366 -0.8593,-3.0413 -1.467,-4.5 -1.1587,-2.3646 -2.7646,-4.4823 -4.729,-6.236 -0.1986,-0.1772 -0.4605,-0.2663 -0.726,-0.247 -0.2649,0.0173 -0.5121,0.1393 -0.687,0.339 -1.73,1.8543 -3.6593,3.512 -5.753,4.943 -2.0226,1.2894 -4.1963,2.3249 -6.472,3.083 -0.012,0 -0.017,0 -0.011,-0.013 0.1886,-0.3614 0.3555,-0.7338 0.5,-1.115 0.4593,-1.3891 0.8087,-2.8121 1.045,-4.256 0.0901,-0.5449 -0.2785,-1.0597 -0.8234,-1.1498 -0.3677,-0.0608 -0.7387,0.0879 -0.9626,0.3858 -1.3912,1.8227 -3.0682,3.4082 -4.966,4.695 -1.0995,0.6707 -2.3034,1.1527 -3.562,1.426 -0.318,0.051 -0.5919,0.252 -0.736,0.54 L 32.382,37 h -0.1 C 30.6323,28.3115 36.3384,19.9307 45.0269,18.2811 46.007,18.095 47.0024,18.0009 48,18 Z"
         id="path1300" />
      <path
         d="m 69.756,61.779 c -4.9071,-3.6649 -10.5837,-6.1654 -16.6,-7.312 -0.5434,-0.0986 -1.0639,0.262 -1.1625,0.8054 -0.0056,0.0313 -0.0098,0.0629 -0.0125,0.0946 C 51.8033,57.4303 50.0709,59.0113 48,59 v 0 c -2.0651,-0.0286 -3.783,-1.5961 -4,-3.65 -0.0557,-0.5495 -0.5463,-0.9497 -1.0958,-0.894 -0.0242,0.0025 -0.0483,0.0058 -0.0722,0.01 -6.0162,1.13 -11.6906,3.6326 -16.582,7.313 -2.6934,2.0814 -4.2644,5.2981 -4.25,8.702 V 82 h 2 V 70.481 c -0.0169,-2.7774 1.2594,-5.4045 3.453,-7.108 3.0869,-2.3111 6.5051,-4.1427 10.139,-5.433 L 36.02,65.8 c -0.1082,0.5416 0.2432,1.0683 0.7848,1.1765 0.2298,0.0459 0.4684,0.0096 0.6742,-0.1025 L 47,61.685 V 82 h 2 V 61.685 l 9.521,5.193 c 0.1471,0.0797 0.3117,0.1217 0.479,0.122 0.5523,1e-4 1.0001,-0.4475 1.0002,-0.9998 0,-0.0672 -0.0067,-0.1343 -0.0202,-0.2002 l -1.565,-7.827 c 3.6271,1.2867 7.0423,3.1067 10.133,5.4 2.193,1.7039 3.4688,4.3309 3.452,7.108 V 82 h 2 V 70.481 c 0.0155,-3.4028 -1.5531,-6.6191 -4.244,-8.702 z M 39.772,57.236 c 0.816,-0.234 1.631,-0.448 2.442,-0.616 0.4794,1.6066 1.5941,2.9478 3.086,3.713 l -6.883,3.754 c -0.005,0.0023 -0.011,1e-4 -0.0133,-0.0049 -8e-4,-0.0019 -0.0011,-0.004 -7e-4,-0.0061 z m 17.809,6.851 -6.858,-3.741 c 1.4971,-0.7526 2.6066,-2.1025 3.055,-3.717 0.813,0.175 1.634,0.4 2.455,0.635 l 1.367,6.812 c 0.003,0.0052 0.0012,0.012 -0.004,0.015 -0.0052,0.003 -0.012,0.0012 -0.015,-0.004 z"
         id="path1302" />
    </g>
    <g
       id="Icons-9"
       transform="matrix(0.22703096,0,0,0.22703096,65.652602,341.47398)">
      <path
         d="M 42.5,87 C 29.5351,87.0138 19.0138,76.5148 19.0001,63.55 18.9975,61.1431 19.3651,58.7501 20.09,56.455 19.995,56.2439 19.9112,56.0279 19.839,55.808 L 19.086,53.4 c -5.563,12.9422 0.419,27.9436 13.3612,33.5066 12.9422,5.563 27.9436,-0.419 33.5066,-13.3612 0.2696,-0.6271 0.5138,-1.2647 0.7322,-1.9114 L 65.293,69.171 C 62.73,79.6682 53.3055,87.0402 42.5,87 Z"
         id="path1315" />
      <path
         d="M 79.679,70.728 68.129,50.512 C 67.2476,49.0129 65.639,48.092 63.9,48.091 H 49.3 L 47.467,31.205 c -0.401,-2.2819 -1.6901,-4.3118 -3.585,-5.645 -1.9012,-1.334 -4.2607,-1.8436 -6.543,-1.413 -1.0285,0.1791 -2.0152,0.5459 -2.911,1.082 l -15.28,9.036 c -1.9392,1.134 -2.8488,3.4492 -2.2,5.6 l 4.806,15.382 c 0.6193,2.0298 2.4938,3.4154 4.616,3.412 0.4986,-0.0185 0.9929,-0.1001 1.471,-0.243 2.5362,-0.8126 3.9391,-3.5218 3.139,-6.062 L 27.278,40.6 31.03,38.37 33.183,50.519 c 0.745,4.1564 4.3634,7.1802 8.586,7.175 H 61.1 l 10.1,17.855 c 0.8559,1.5357 2.4861,2.4772 4.244,2.451 0.8457,-0.0127 1.6767,-0.2237 2.426,-0.616 2.3057,-1.3629 3.1077,-4.3135 1.809,-6.656 z m -2.758,4.9 c -1.3878,0.7899 -3.1524,0.3273 -3.974,-1.042 L 62.269,55.694 h -20.5 c -3.2533,0.0047 -6.0418,-2.324 -6.617,-5.526 l -2.284,-12.889 1.61,-0.955 c 0.4701,-0.2899 0.6162,-0.906 0.3263,-1.3761 -0.2828,-0.4586 -0.8782,-0.6107 -1.3463,-0.3439 l -0.963,0.571 v 0 l -7.6,4.51 4.188,13.283 c 0.4785,1.467 -0.3228,3.0442 -1.7898,3.5227 -0.0034,0.0011 -0.0068,0.0022 -0.0102,0.0033 -0.297,0.088 -0.6029,0.1424 -0.912,0.162 -1.2412,0.0044 -2.3385,-0.8056 -2.7,-1.993 L 18.866,39.281 C 18.4984,38.0233 19.0245,36.6759 20.147,36 l 15.32,-9.059 c 2.2676,-1.3289 5.0988,-1.228 7.266,0.259 1.4462,1.0146 2.4359,2.5566 2.756,4.294 l 2.021,18.6 H 63.9 c 1.0281,-0.01 1.9825,0.5325 2.5,1.421 l 11.546,20.21 v 0.005 c 0.7571,1.3633 0.3051,3.081 -1.025,3.895 z"
         id="path1317" />
      <path
         d="m 37.5,22 c 4.4183,0 8,-3.5817 8,-8 0,-4.41828 -3.5817,-8 -8,-8 -4.4183,0 -8,3.58172 -8,8 0.005,4.4162 3.5838,7.995 8,8 z m 0,-14 c 3.3137,0 6,2.6863 6,6 0,3.3137 -2.6863,6 -6,6 -3.3137,0 -6,-2.6863 -6,-6 0.0033,-3.3123 2.6877,-5.99669 6,-6 z"
         id="path1319" />
    </g>
    <g
       id="Icons-94"
       transform="matrix(0.22703096,0,0,0.22703096,251.46048,341.24065)">
      <path
         d="M 66.625,59.249 64,44.457 c -0.4201,-2.3073 -2.4358,-3.9802 -4.781,-3.968 l -34.485,2.883 -0.179,0.014 c -0.175,0.015 -0.4,0.033 -0.424,0.036 l -0.688,0.065 c -6.8288,0.7988 -11.7171,6.9822 -10.9184,13.811 0.2457,2.1002 1.0222,4.1031 2.2564,5.82 0.2955,0.4666 0.9132,0.6053 1.3798,0.3099 0.4667,-0.2955 0.6054,-0.9133 0.3099,-1.3799 C 16.4492,62.014 16.4255,61.9812 16.4,61.95 13.0319,57.264 14.1003,50.7349 18.7863,47.3668 20.2257,46.3323 21.9045,45.6809 23.665,45.474 l 8.331,-0.7 V 59.352 L 30.274,56.265 29.8,55.4 c -1.2168,-2.0804 -3.4351,-3.3707 -5.845,-3.4 -3.7119,-0.0037 -6.724,3.0024 -6.7276,6.7144 -0.0018,1.7592 0.6863,3.449 1.9166,4.7066 l 1.956,1.943 h -7.645 c -2.6609,0 -4.818,2.1571 -4.818,4.818 0,2.6609 2.1571,4.818 4.818,4.818 h 19.09 c 2.6599,-0.0028 4.8157,-2.1581 4.819,-4.818 0.006,-0.9446 -0.2728,-1.8692 -0.8,-2.653 l -1.234,-2.208 21.454,-6.352 0.615,3.46 c 0.1718,0.9719 0.639,1.8672 1.338,2.564 l 8.595,8.595 c 1.8592,1.9052 4.9108,1.9425 6.816,0.0833 1.9052,-1.8592 1.9425,-4.9108 0.0833,-6.816 C 74.2039,66.8272 74.1761,66.7994 74.148,66.772 Z M 32.412,73 H 13.566 c -1.3721,0.0251 -2.5731,-0.9173 -2.875,-2.256 -0.3076,-1.5284 0.6821,-3.0169 2.2105,-3.3245 0.1822,-0.0367 0.3676,-0.0553 0.5535,-0.0555 h 12.259 c 0.0552,-2e-4 0.0998,-0.0452 0.0996,-0.1004 -10e-5,-0.0265 -0.0108,-0.0519 -0.0296,-0.0706 l -5.215,-5.174 c -1.8209,-1.8669 -1.7836,-4.8565 0.0834,-6.6774 0.8833,-0.8615 2.0687,-1.3431 3.3026,-1.3416 1.6922,0.0388 3.2453,0.9455 4.111,2.4 l 5.564,10.023 1.238,2.167 c 0.4552,0.6608 0.6066,1.4845 0.416,2.264 -0.3519,1.2893 -1.5358,2.1739 -2.872,2.146 z m 40.322,-0.826 c -1.1158,1.0657 -2.8722,1.0657 -3.988,0 l -8.595,-8.6 c -0.4089,-0.4077 -0.6822,-0.9314 -0.783,-1.5 l -0.384,-2.163 c 0,-0.028 0.007,-0.053 0,-0.08 l -1,-6 c -0.0742,-0.5473 -0.5779,-0.9308 -1.1252,-0.8567 -0.5473,0.0742 -0.9308,0.578 -0.8567,1.1253 0.0027,0.0199 0.006,0.0397 0.0099,0.0594 L 56.48,56.967 34.331,63.531 34,62.937 V 44.6 l 23.97,-2.021 1.307,-0.1 c 1.3556,0.0115 2.511,0.9866 2.75,2.321 l 2.739,15.411 7.968,7.968 c 1.1012,1.1013 1.1012,2.8867 0,3.988 z"
         id="path1333" />
      <path
         d="M 75.5,22 C 68.5964,22 63,27.5964 63,34.5 63,41.4036 68.5964,47 75.5,47 82.4036,47 88,41.4036 88,34.5 87.9923,27.5996 82.4004,22.0077 75.5,22 Z m 0,23 C 69.701,45 65,40.299 65,34.5 65,28.701 69.701,24 75.5,24 81.299,24 86,28.701 86,34.5 85.9934,40.2962 81.2962,44.9934 75.5,45 Z"
         id="path1335" />
    </g>
    <g
       id="Icons-7"
       transform="matrix(0.22703096,0,0,0.22703096,85.697535,319.91569)">
      <path
         d="m 44.674,53 c 4.1421,0 7.5,-3.3579 7.5,-7.5 0,-4.1421 -3.3579,-7.5 -7.5,-7.5 -4.1421,0 -7.5,3.3579 -7.5,7.5 0.005,4.1401 3.3599,7.495 7.5,7.5 z m 0,-13 c 3.0376,0 5.5,2.4624 5.5,5.5 0,3.0376 -2.4624,5.5 -5.5,5.5 -3.0376,0 -5.5,-2.4624 -5.5,-5.5 0.0033,-3.0362 2.4638,-5.4967 5.5,-5.5 z"
         id="path1348" />
      <path
         d="M 70.253,10.556 C 70.253,5.518 67.123,2 62.642,2 c -4.481,0 -7.611,3.518 -7.611,8.556 0,4.459 3.384,9.475 6.682,10.31 -0.3583,2.8476 -0.046,5.7395 0.912,8.445 0.5485,1.5795 0.894,3.2223 1.028,4.889 0.2034,2.796 -0.2714,5.5998 -1.384,8.173 -0.077,0.216 -0.158,0.449 -0.237,0.673 -1.0967,0.0258 -2.1378,0.4884 -2.892,1.285 l -9.6,10.092 h -4.6 l -1.721,0.07 c -3.5371,0.3813 -6.7763,2.157 -9,4.934 -0.2762,0.3535 -0.5158,0.7341 -0.715,1.136 L 33.128,61.31 28.321,72.8 c -0.7756,1.7869 -0.1454,3.8726 1.49,4.931 0.6161,0.3788 1.3248,0.5802 2.048,0.582 0.5523,0 1,-0.4477 1,-1 0,-0.5523 -0.4477,-1 -1,-1 -0.3551,-0.002 -0.7027,-0.1017 -1.005,-0.288 -0.7966,-0.5407 -1.0875,-1.5767 -0.689,-2.453 l 4.781,-11.43 0.345,-0.679 c 0.1393,-0.2828 0.3068,-0.5509 0.5,-0.8 1.8675,-2.3426 4.5883,-3.8485 7.565,-4.187 l 1.63,-0.066 H 50.4 L 60.588,45.706 c 0.6975,-0.7811 1.8795,-0.8919 2.71,-0.254 0.7946,0.6785 0.8888,1.8728 0.2102,2.6674 -0.0214,0.0251 -0.0435,0.0497 -0.0662,0.0736 L 50.174,62.116 V 92 h -4.5 V 76 h -2 v 16 h -4.5 V 67 c 0,-0.5523 -0.4477,-1 -1,-1 -0.5523,0 -1,0.4477 -1,1 v 27 h 15 V 62.917 L 64.891,49.572 c 0.7339,-0.7744 1.1191,-1.8154 1.066,-2.881 -0.0506,-1.0676 -0.5421,-2.0664 -1.357,-2.758 -0.1888,-0.1616 -0.3935,-0.3037 -0.611,-0.424 0.055,-0.154 0.111,-0.317 0.164,-0.466 1.2104,-2.8326 1.7248,-5.9139 1.5,-8.986 -0.1445,-1.8187 -0.5182,-3.6119 -1.112,-5.337 -0.9053,-2.529 -1.1822,-5.2402 -0.807,-7.9 3.241,-0.949 6.519,-5.876 6.519,-10.264 z m -13.222,0 C 57.031,6.634 59.286,4 62.642,4 c 3.356,0 5.611,2.634 5.611,6.556 0,4.188 -3.6,8.444 -5.611,8.444 -2.011,0 -5.611,-4.256 -5.611,-8.444 z"
         id="path1350" />
    </g>
    <g
       id="Icons-62"
       transform="matrix(0.22703096,0,0,0.22703096,240.06832,320.36974)"
       inkscape:transform-center-x="8.7147648"
       inkscape:transform-center-y="4.3573786">
      <path
         d="M 83,45 H 41 c -0.5523,0 -1,0.4477 -1,1 0,0.5523 0.4477,1 1,1 h 20 v 33 h -8 v 2 H 71 V 80 H 63 V 47 h 20 c 0.5523,0 1,-0.4477 1,-1 0,-0.5523 -0.4477,-1 -1,-1 z"
         id="path1363" />
      <path
         d="M 36,63 H 25 C 20.0319,62.9939 16.0061,58.9681 16,54 V 37 c 0,-0.5523 -0.4477,-1 -1,-1 -0.5523,0 -1,0.4477 -1,1 v 17 c 0.0075,5.6837 4.3402,10.4276 10,10.949 V 80 h -8 v 2 H 34 V 80 H 26 V 65 h 10 c 0.5523,0 1,-0.4477 1,-1 0,-0.5523 -0.4477,-1 -1,-1 z"
         id="path1365" />
      <path
         d="M 44.8,51.155 H 34.1 V 40.679 l 0.705,0.512 v 0 c 0.7169,0.5178 1.5767,0.8005 2.461,0.809 h 7.359 c 0.822,-0.0013 1.6259,-0.2413 2.314,-0.691 l 0.064,0.774 C 47.0462,42.6015 47.4797,43.0002 48,43 h 5 c 0.5214,0.0018 0.9567,-0.3974 1,-0.917 l 1,-12 C 55.0458,29.5326 54.6368,29.0493 54.0865,29.0034 54.0577,29.001 54.0289,28.9999 54,29 h -7 c -0.5523,-0.0019 -1.0015,0.4443 -1.0034,0.9965 -1e-4,0.0289 10e-4,0.0577 0.0034,0.0865 l 0.31,3.715 c -0.5328,-0.2308 -1.1073,-0.3499 -1.688,-0.35 h -5.928 l -7.077,-5.123 c -1.5889,-1.4228 -3.7044,-2.1091 -5.826,-1.89 -3.9071,0.4412 -6.8436,3.7724 -6.791,7.704 v 18.309 c 0.005,4.1684 3.3826,7.5465 7.551,7.552 h 13.973 v 16.088 c -0.0361,2.3613 1.8488,4.3048 4.2101,4.3409 2.3613,0.0361 4.3048,-1.8488 4.3409,-4.2101 7e-4,-0.0436 7e-4,-0.0872 0,-0.1308 V 55.432 C 49.0728,53.0716 47.1604,51.1583 44.8,51.155 Z M 52.913,31 52.08,41 h -3.16 l -0.181,-2.177 c 0.279,-0.9573 0.1935,-1.984 -0.24,-2.882 L 48.087,31 Z m -5.838,45.088 c 0.0263,1.2567 -0.9711,2.2969 -2.2278,2.3232 -1.2567,0.0263 -2.2969,-0.9711 -2.3232,-2.2278 -7e-4,-0.0318 -7e-4,-0.0636 0,-0.0954 V 58 H 26.551 C 23.4867,57.9956 21.0039,55.5123 21,52.448 V 34.126 c -0.0906,-3.0738 2.3278,-5.639 5.4016,-5.7296 0.0571,-0.0017 0.1143,-0.0025 0.1714,-0.0024 1.3834,4e-4 2.717,0.5167 3.74,1.448 l 7.734,5.606 h 6.578 c 1.257,0 2.276,1.019 2.276,2.276 0,1.257 -1.019,2.276 -2.276,2.276 h -7.346 c -0.4673,-0.0052 -0.9214,-0.155 -1.3,-0.429 L 33.71,37.922 c -0.018,-0.015 -0.028,-0.036 -0.047,-0.05 l -2.119,-1.54 c -0.4368,-0.338 -1.0649,-0.2578 -1.4028,0.179 -0.338,0.4368 -0.2579,1.0648 0.1789,1.4028 0.0163,0.0126 0.0329,0.0246 0.0499,0.0362 l 1.73,1.259 v 13.946 h 12.7 c 1.2565,0.0017 2.2744,1.0205 2.275,2.277 z"
         id="path1367" />
      <path
         d="m 26,24 c 3.866,0 7,-3.134 7,-7 0,-3.866 -3.134,-7 -7,-7 -3.866,0 -7,3.134 -7,7 0.0039,3.8644 3.1356,6.9961 7,7 z m 0,-12 c 2.7614,0 5,2.2386 5,5 0,2.7614 -2.2386,5 -5,5 -2.7614,0 -5,-2.2386 -5,-5 0,-2.7614 2.2386,-5 5,-5 z"
         id="path1369" />
    </g>
    <text
       xml:space="preserve"
       id="text1384"
       style="font-style:normal;font-weight:normal;font-size:10.5833px;line-height:1.25;font-family:sans-serif;white-space:pre;shape-inside:url(#rect1386);fill:#000000;fill-opacity:1;stroke:none;"
       transform="matrix(0.85806979,0,0,0.85806979,94.677265,-28.213923)"><tspan
         x="62.808594"
         y="418.84492"><tspan>700,000</tspan></tspan></text>
    <text
       xml:space="preserve"
       id="text1390"
       style="font-style:normal;font-weight:normal;font-size:4.93889px;line-height:1.25;font-family:sans-serif;white-space:pre;shape-inside:url(#rect1392);fill:#000000;fill-opacity:1;stroke:none;"
       transform="matrix(0.85806979,0,0,0.85806979,30.801017,-29.360603)"><tspan
         x="125.88477"
         y="430.26566"><tspan
           style="font-size:4.93889px">Airline industry employees.
</tspan></tspan><tspan
         x="125.88477"
         y="436.43928"><tspan
           style="font-size:4.93889px">
</tspan></tspan><tspan
         x="125.88477"
         y="442.61289"><tspan
           style="font-size:4.93889px">We are keeping them safe,
</tspan></tspan><tspan
         x="125.88477"
         y="448.78651"><tspan
           style="font-size:4.93889px">so they can keep you safe.</tspan></tspan></text>
    <text
       xml:space="preserve"
       id="text1457"
       style="fill:black;fill-opacity:1;line-height:1.25;stroke:none;font-family:sans-serif;font-style:normal;font-weight:normal;font-size:10.58333336px;white-space:pre;shape-inside:url(#rect1459);" />
    <text
       xml:space="preserve"
       id="text1463"
       style="fill:black;fill-opacity:1;line-height:1.25;stroke:none;font-family:sans-serif;font-style:normal;font-weight:normal;font-size:10.58333336px;white-space:pre;shape-inside:url(#rect1465);" />
  </g>
</svg>
